<svg width="15" height="14" viewBox="0 0 15 14" fill="none" xmlns="http://www.w3.org/2000/svg">
<path d="M7.75 1.26506C9.60542 1.26506 9.85843 1.26506 10.6175 1.26506C11.2922 1.26506 11.6295 1.43374 11.8825 1.51807C12.2199 1.68675 12.4729 1.77109 12.7259 2.0241C12.9789 2.27711 13.1476 2.53012 13.2319 2.86747C13.3163 3.12048 13.4006 3.45783 13.4849 4.13253C13.4849 4.89157 13.4849 5.06024 13.4849 7C13.4849 8.93976 13.4849 9.10843 13.4849 9.86747C13.4849 10.5422 13.3163 10.8795 13.2319 11.1325C13.0633 11.4699 12.9789 11.7229 12.7259 11.9759C12.4729 12.2289 12.2199 12.3976 11.8825 12.4819C11.6295 12.5663 11.2922 12.6506 10.6175 12.7349C9.85843 12.7349 9.68976 12.7349 7.75 12.7349C5.81024 12.7349 5.64157 12.7349 4.88253 12.7349C4.20783 12.7349 3.87048 12.5663 3.61747 12.4819C3.28012 12.3133 3.02711 12.2289 2.7741 11.9759C2.52109 11.7229 2.35241 11.4699 2.26807 11.1325C2.18374 10.8795 2.0994 10.5422 2.01506 9.86747C2.01506 9.10843 2.01506 8.93976 2.01506 7C2.01506 5.06024 2.01506 4.89157 2.01506 4.13253C2.01506 3.45783 2.18374 3.12048 2.26807 2.86747C2.43675 2.53012 2.52109 2.27711 2.7741 2.0241C3.02711 1.77109 3.28012 1.60241 3.61747 1.51807C3.87048 1.43374 4.20783 1.3494 4.88253 1.26506C5.64157 1.26506 5.89458 1.26506 7.75 1.26506ZM7.75 0C5.81024 0 5.64157 0 4.88253 0C4.12349 0 3.61747 0.168675 3.19578 0.33735C2.7741 0.506025 2.35241 0.759037 1.93072 1.18072C1.50904 1.60241 1.34036 1.93976 1.08735 2.44578C0.918675 2.86747 0.834337 3.37349 0.75 4.13253C0.75 4.89157 0.75 5.14458 0.75 7C0.75 8.93976 0.75 9.10843 0.75 9.86747C0.75 10.6265 0.918675 11.1325 1.08735 11.5542C1.25602 11.9759 1.50904 12.3976 1.93072 12.8193C2.35241 13.241 2.68976 13.4096 3.19578 13.6627C3.61747 13.8313 4.12349 13.9157 4.88253 14C5.64157 14 5.89458 14 7.75 14C9.60542 14 9.85843 14 10.6175 14C11.3765 14 11.8825 13.8313 12.3042 13.6627C12.7259 13.494 13.1476 13.241 13.5693 12.8193C13.991 12.3976 14.1596 12.0602 14.4127 11.5542C14.5813 11.1325 14.6657 10.6265 14.75 9.86747C14.75 9.10843 14.75 8.85542 14.75 7C14.75 5.14458 14.75 4.89157 14.75 4.13253C14.75 3.37349 14.5813 2.86747 14.4127 2.44578C14.244 2.0241 13.991 1.60241 13.5693 1.18072C13.1476 0.759037 12.8102 0.590362 12.3042 0.33735C11.8825 0.168675 11.3765 0.0843374 10.6175 0C9.85843 0 9.68976 0 7.75 0Z" fill="white"/>
<path d="M7.75 3.37349C5.7259 3.37349 4.12349 4.9759 4.12349 7C4.12349 9.0241 5.7259 10.6265 7.75 10.6265C9.7741 10.6265 11.3765 9.0241 11.3765 7C11.3765 4.9759 9.7741 3.37349 7.75 3.37349ZM7.75 9.36145C6.48494 9.36145 5.38855 8.3494 5.38855 7C5.38855 5.73494 6.4006 4.63855 7.75 4.63855C9.01506 4.63855 10.1114 5.6506 10.1114 7C10.1114 8.26506 9.01506 9.36145 7.75 9.36145Z" fill="white"/>
<path d="M11.4608 4.13253C11.9266 4.13253 12.3042 3.75494 12.3042 3.28916C12.3042 2.82338 11.9266 2.44578 11.4608 2.44578C10.9951 2.44578 10.6175 2.82338 10.6175 3.28916C10.6175 3.75494 10.9951 4.13253 11.4608 4.13253Z" fill="white"/>
</svg>
