<svg width="17" height="14" viewBox="0 0 17 14" fill="none" xmlns="http://www.w3.org/2000/svg">
<path d="M5.86048 13.5C11.9928 13.5 15.3464 8.49899 15.3464 4.16257C15.3464 4.02048 15.3435 3.87912 15.3368 3.73831C15.9877 3.27512 16.5537 2.69696 17 2.03911C16.4027 2.30036 15.7599 2.47628 15.0854 2.5556C15.7737 2.14936 16.3023 1.50642 16.5516 0.740144C15.9073 1.11619 15.1939 1.38944 14.4347 1.53681C13.8261 0.898967 12.9596 0.5 12.001 0.5C10.1596 0.5 8.66643 1.96979 8.66643 3.78143C8.66643 4.03904 8.69582 4.28937 8.75274 4.5297C5.98209 4.3927 3.52508 3.08665 1.88092 1.10109C1.59426 1.58593 1.42922 2.14954 1.42922 2.75044C1.42922 3.88895 2.01787 4.8941 2.91296 5.48227C2.36607 5.46571 1.85227 5.31762 1.40297 5.07166C1.40223 5.0853 1.40223 5.09913 1.40223 5.1135C1.40223 6.703 2.55163 8.02998 4.07696 8.33071C3.79696 8.40585 3.50235 8.44623 3.19814 8.44623C2.98337 8.44623 2.77453 8.42513 2.57141 8.38711C2.99576 9.6908 4.22666 10.6397 5.68601 10.6665C4.54474 11.5468 3.1072 12.0713 1.54528 12.0713C1.27637 12.0713 1.01097 12.0562 0.75 12.0258C2.22542 12.9566 3.97734 13.5 5.86048 13.5Z" fill="white"/>
</svg>
