<svg width="684" height="250" viewBox="0 0 684 250" fill="none" xmlns="http://www.w3.org/2000/svg">
<path d="M454.011 100.357L447.082 96.3568L448.481 93.9347C448.76 93.452 449.073 93.1022 449.421 92.885C449.766 92.6666 450.123 92.5614 450.491 92.5695C450.857 92.5763 451.209 92.6774 451.548 92.8727C451.845 93.0446 452.061 93.2395 452.193 93.4575C452.327 93.6732 452.401 93.8993 452.415 94.1358C452.43 94.3701 452.408 94.6021 452.347 94.8318L452.415 94.8708C452.551 94.6667 452.748 94.4965 453.007 94.3604C453.266 94.2242 453.564 94.1569 453.9 94.1584C454.236 94.1599 454.586 94.2661 454.952 94.4771C455.299 94.6776 455.566 94.9369 455.752 95.2549C455.938 95.5729 456.014 95.9491 455.98 96.3834C455.946 96.8177 455.771 97.3077 455.456 97.8535L454.011 100.357ZM453.751 99.0882L454.712 97.4238C455.028 96.8758 455.147 96.4255 455.068 96.0731C454.987 95.7171 454.795 95.4512 454.491 95.2754C454.256 95.14 454.005 95.0748 453.738 95.0797C453.468 95.0834 453.209 95.1612 452.962 95.3132C452.713 95.4639 452.501 95.6904 452.327 95.9926L451.342 97.6976L453.751 99.0882ZM450.611 97.2757L451.51 95.7196C451.656 95.467 451.738 95.2105 451.756 94.9503C451.775 94.6877 451.729 94.4446 451.617 94.2209C451.507 93.995 451.33 93.8117 451.087 93.6711C450.782 93.4953 450.463 93.4522 450.129 93.5418C449.792 93.6301 449.491 93.9043 449.225 94.3644L448.311 95.9476L450.611 97.2757Z" fill="black"/>
<path d="M462.421 87.3484L456.204 82.3138L459.243 78.5617L459.911 79.1025L457.482 82.1018L459.583 83.8029L461.854 80.9979L462.522 81.5387L460.25 84.3437L462.363 86.0547L464.831 83.0068L465.499 83.5477L462.421 87.3484Z" fill="black"/>
<path d="M472.321 76.3195L471.566 76.9991L468.396 69.0884L469.139 68.4192L476.675 72.3988L475.92 73.0784L469.638 69.6734L469.591 69.7153L472.321 76.3195ZM470.508 73.7463L473.551 71.007L474.126 71.6457L471.083 74.3849L470.508 73.7463Z" fill="black"/>
<path d="M483.303 57.7433L484.115 57.2157L487 61.658C487.298 62.1167 487.456 62.5964 487.474 63.0971C487.492 63.5943 487.374 64.0736 487.117 64.535C486.86 64.9941 486.468 65.3946 485.941 65.7365C485.415 66.0783 484.89 66.2735 484.366 66.3221C483.84 66.3685 483.353 66.2828 482.904 66.065C482.456 65.8436 482.083 65.5036 481.785 65.045L478.9 60.6026L479.712 60.075L482.555 64.4518C482.768 64.7794 483.029 65.0242 483.339 65.1861C483.648 65.3459 483.983 65.4124 484.344 65.3857C484.707 65.3554 485.074 65.219 485.448 64.9764C485.821 64.7339 486.096 64.4533 486.271 64.1347C486.444 63.8139 486.52 63.4808 486.497 63.1352C486.475 62.7861 486.358 62.4477 486.145 62.1201L483.303 57.7433Z" fill="black"/>
<path d="M493.315 53.126L492.966 52.341L498.447 49.9005L498.797 50.6856L496.498 51.7088L499.403 58.2321L498.518 58.6261L495.613 52.1028L493.315 53.126Z" fill="black"/>
<path d="M507.852 46.4705L508.923 46.1834L512.033 49.2162L512.124 49.192L513.3 45.0106L514.372 44.7235L512.797 50.0145L513.65 53.199L512.715 53.4497L511.861 50.2652L507.852 46.4705Z" fill="black"/>
<path d="M544.886 44.1913C544.86 43.7935 544.686 43.4767 544.364 43.2408C544.043 43.0049 543.64 42.8743 543.157 42.8489C542.803 42.8304 542.491 42.8714 542.219 42.9719C541.951 43.0726 541.737 43.2192 541.578 43.4116C541.422 43.6043 541.337 43.828 541.324 44.0828C541.313 44.2961 541.354 44.4821 541.447 44.6408C541.543 44.7971 541.67 44.9302 541.825 45.0401C541.981 45.1474 542.146 45.2381 542.32 45.3124C542.493 45.3841 542.653 45.4433 542.799 45.4901L543.599 45.7511C543.804 45.8166 544.032 45.9041 544.282 46.0137C544.534 46.1234 544.773 46.2677 544.998 46.4464C545.226 46.6226 545.41 46.8435 545.55 47.109C545.69 47.3745 545.75 47.6945 545.731 48.0689C545.708 48.5006 545.575 48.8848 545.33 49.2214C545.088 49.5582 544.746 49.818 544.304 50.0008C543.864 50.1838 543.337 50.2592 542.723 50.227C542.151 50.197 541.66 50.0787 541.251 49.8721C540.845 49.6657 540.531 49.3911 540.309 49.0482C540.09 48.7056 539.976 48.315 539.967 47.8764L540.966 47.9288C540.976 48.2318 541.065 48.4868 541.231 48.6937C541.4 48.8981 541.619 49.0556 541.887 49.1661C542.158 49.2742 542.452 49.3366 542.769 49.3532C543.138 49.3725 543.473 49.3301 543.773 49.2259C544.073 49.1191 544.315 48.9622 544.498 48.7554C544.681 48.5459 544.78 48.2955 544.795 48.0043C544.809 47.739 544.747 47.5193 544.607 47.3451C544.468 47.1709 544.28 47.0254 544.043 46.9087C543.807 46.792 543.55 46.6873 543.273 46.5946L542.305 46.2622C541.69 46.05 541.21 45.768 540.863 45.416C540.516 45.0641 540.357 44.6189 540.385 44.0806C540.409 43.6333 540.55 43.2495 540.81 42.9293C541.072 42.6067 541.413 42.3638 541.833 42.2007C542.257 42.0351 542.723 41.9657 543.233 41.9924C543.748 42.0194 544.201 42.1357 544.592 42.3413C544.983 42.5443 545.287 42.8106 545.504 43.1402C545.724 43.4698 545.83 43.8366 545.822 44.2403L544.886 44.1913Z" fill="black"/>
<path d="M556.179 44.363L556.357 43.5224L562.226 44.7699L562.048 45.6105L559.587 45.0875L558.102 52.0721L557.155 51.8706L558.639 44.8861L556.179 44.363Z" fill="black"/>
<path d="M576.927 49.4722L577.832 49.8194L575.934 54.7644C575.738 55.275 575.442 55.6846 575.048 55.9934C574.656 56.3007 574.199 56.4862 573.675 56.5502C573.152 56.6116 572.598 56.5299 572.012 56.305C571.426 56.0801 570.959 55.7698 570.612 55.3743C570.265 54.9762 570.048 54.5317 569.96 54.0406C569.876 53.548 569.932 53.0464 570.128 52.5358L572.026 47.5908L572.93 47.938L571.06 52.8101C570.92 53.1748 570.876 53.5301 570.927 53.8762C570.979 54.2198 571.123 54.53 571.357 54.8067C571.594 55.0819 571.921 55.2994 572.336 55.459C572.752 55.6185 573.14 55.6755 573.501 55.6298C573.862 55.5817 574.176 55.447 574.443 55.2256C574.712 55.0028 574.917 54.709 575.057 54.3443L576.927 49.4722Z" fill="black"/>
<path d="M585.495 62.495L583.357 61.2607L587.357 54.3325L589.589 55.6215C590.261 56.0095 590.756 56.4803 591.074 57.0337C591.394 57.5849 591.532 58.1923 591.488 58.8559C591.446 59.5172 591.218 60.2065 590.804 60.9236C590.387 61.6453 589.9 62.1924 589.342 62.565C588.786 62.9352 588.181 63.1183 587.528 63.1141C586.876 63.1076 586.198 62.9013 585.495 62.495ZM584.625 61.0008L585.87 61.7195C586.443 62.0503 586.981 62.2138 587.486 62.2103C587.99 62.2067 588.452 62.0542 588.873 61.7528C589.294 61.4513 589.667 61.0187 589.992 60.4549C590.315 59.8956 590.502 59.3614 590.552 58.8522C590.604 58.3408 590.511 57.872 590.273 57.4458C590.036 57.0175 589.647 56.647 589.105 56.3345L587.766 55.5611L584.625 61.0008Z" fill="black"/>
<path d="M603.706 65.3222L598.672 71.5394L597.919 70.9297L602.953 64.7126L603.706 65.3222Z" fill="black"/>
<path d="M614.328 81.2956C613.701 81.8601 613.057 82.2348 612.397 82.4196C611.736 82.6044 611.104 82.611 610.501 82.4392C609.898 82.2675 609.368 81.9281 608.911 81.421C608.455 80.914 608.173 80.3516 608.065 79.7337C607.957 79.1159 608.03 78.4881 608.283 77.8505C608.535 77.2128 608.975 76.6117 609.602 76.0471C610.229 75.4825 610.873 75.1078 611.534 74.923C612.194 74.7382 612.826 74.7317 613.429 74.9034C614.033 75.0752 614.563 75.4146 615.019 75.9216C615.476 76.4287 615.758 76.9911 615.866 77.6089C615.973 78.2268 615.901 78.8545 615.648 79.4922C615.395 80.1299 614.955 80.731 614.328 81.2956ZM613.701 80.5989C614.216 80.1353 614.572 79.658 614.772 79.1669C614.972 78.6777 615.032 78.2051 614.951 77.7491C614.871 77.295 614.67 76.888 614.346 76.528C614.021 76.1681 613.637 75.9239 613.192 75.7954C612.749 75.6689 612.272 75.679 611.763 75.8257C611.256 75.9742 610.744 76.2803 610.23 76.7438C609.715 77.2073 609.357 77.6837 609.156 78.1728C608.957 78.664 608.897 79.1366 608.977 79.5907C609.058 80.0467 609.261 80.4547 609.585 80.8146C609.909 81.1746 610.293 81.4178 610.736 81.5443C611.181 81.6727 611.657 81.6627 612.165 81.5141C612.674 81.3674 613.186 81.0624 613.701 80.5989Z" fill="black"/>
<path d="M624.446 104.326L631.754 101.072L632.148 101.957L625.625 104.861L627.137 108.259L626.352 108.608L624.446 104.326Z" fill="black"/>
<path d="M635.174 122.838C634.359 123.057 633.616 123.098 632.943 122.963C632.271 122.828 631.705 122.547 631.245 122.12C630.786 121.693 630.468 121.15 630.291 120.491C630.114 119.832 630.118 119.203 630.303 118.603C630.487 118.004 630.837 117.477 631.352 117.024C631.866 116.571 632.531 116.235 633.346 116.016C634.161 115.798 634.905 115.756 635.578 115.892C636.25 116.027 636.816 116.308 637.276 116.735C637.735 117.162 638.053 117.705 638.23 118.364C638.406 119.023 638.402 119.652 638.218 120.251C638.033 120.851 637.684 121.377 637.169 121.831C636.654 122.284 635.989 122.62 635.174 122.838ZM634.932 121.933C635.601 121.753 636.135 121.49 636.536 121.143C636.937 120.798 637.205 120.404 637.339 119.961C637.475 119.52 637.48 119.066 637.354 118.598C637.229 118.13 636.997 117.738 636.659 117.422C636.321 117.108 635.892 116.901 635.372 116.8C634.852 116.702 634.258 116.743 633.589 116.922C632.92 117.101 632.385 117.363 631.984 117.708C631.583 118.055 631.316 118.449 631.18 118.89C631.046 119.333 631.041 119.788 631.166 120.256C631.292 120.724 631.523 121.115 631.861 121.429C632.199 121.746 632.628 121.953 633.147 122.051C633.668 122.151 634.263 122.112 634.932 121.933Z" fill="black"/>
<path d="M641.459 137.461L633.502 138.297L633.404 137.364L639.196 132.372L639.187 132.295L632.941 132.951L632.839 131.988L640.795 131.152L640.893 132.084L635.088 137.093L635.097 137.171L641.359 136.513L641.459 137.461Z" fill="black"/>
<path d="M633.63 149.918L633.759 147.452L641.748 147.871L641.613 150.446C641.573 151.221 641.378 151.875 641.029 152.41C640.683 152.945 640.205 153.343 639.594 153.606C638.985 153.869 638.268 153.978 637.441 153.935C636.608 153.891 635.9 153.706 635.315 153.378C634.732 153.05 634.294 152.594 634.002 152.01C633.711 151.427 633.588 150.729 633.63 149.918ZM634.567 148.465L634.492 149.9C634.457 150.561 634.556 151.115 634.788 151.563C635.02 152.01 635.366 152.353 635.825 152.591C636.285 152.829 636.84 152.965 637.49 152.999C638.135 153.033 638.695 152.956 639.172 152.77C639.651 152.584 640.027 152.288 640.298 151.883C640.572 151.477 640.726 150.962 640.758 150.338L640.839 148.793L634.567 148.465Z" fill="black"/>
<path d="M634.888 169.317C634.063 169.141 633.382 168.841 632.844 168.415C632.306 167.989 631.929 167.482 631.714 166.893C631.498 166.304 631.461 165.676 631.603 165.008C631.745 164.341 632.034 163.782 632.471 163.332C632.907 162.881 633.458 162.571 634.122 162.401C634.787 162.231 635.532 162.233 636.357 162.409C637.182 162.584 637.864 162.885 638.402 163.311C638.939 163.736 639.316 164.244 639.532 164.833C639.747 165.422 639.784 166.05 639.642 166.717C639.5 167.385 639.211 167.943 638.775 168.394C638.338 168.844 637.788 169.154 637.123 169.325C636.459 169.495 635.714 169.492 634.888 169.317ZM635.083 168.4C635.761 168.544 636.357 168.552 636.871 168.424C637.385 168.299 637.803 168.07 638.124 167.736C638.444 167.405 638.655 167.003 638.756 166.529C638.857 166.055 638.828 165.6 638.67 165.165C638.512 164.732 638.224 164.352 637.806 164.027C637.388 163.703 636.84 163.47 636.162 163.326C635.484 163.182 634.889 163.172 634.375 163.297C633.861 163.425 633.443 163.654 633.122 163.986C632.801 164.319 632.59 164.723 632.49 165.197C632.389 165.671 632.418 166.124 632.576 166.557C632.734 166.993 633.022 167.372 633.44 167.695C633.858 168.021 634.406 168.256 635.083 168.4Z" fill="black"/>
<path d="M633.849 185.198L626.381 182.332L626.717 181.456L634.143 179.637L634.171 179.565L628.307 177.314L628.654 176.409L636.123 179.276L635.787 180.151L628.34 181.979L628.312 182.052L634.191 184.309L633.849 185.198Z" fill="black"/>
<path d="M50.56 247.76C39.68 247.76 31.1467 244.4 24.96 237.68C18.88 230.96 15.84 221.413 15.84 209.04C15.84 201.253 17.44 193.2 20.64 184.88C16.16 181.787 12.9067 178.32 10.88 174.48C8.96 170.533 8 165.787 8 160.24C8 152.88 9.65333 146.32 12.96 140.56C16.3733 134.8 20.9067 129.893 26.56 125.84C32.2133 121.68 38.56 118.533 45.6 116.4C52.64 114.267 59.7867 113.2 67.04 113.2C74.1867 113.2 81.12 114.32 87.84 116.56C94.56 118.693 100.533 122.053 105.76 126.64C111.093 131.12 115.2 136.827 118.08 143.76C121.067 150.693 122.347 158.96 121.92 168.56C126.933 165.467 131.253 162.107 134.88 158.48C138.613 154.747 141.333 151.333 143.04 148.24C143.573 147.28 144.107 146.8 144.64 146.8C145.173 146.8 145.493 147.227 145.6 148.08C145.813 148.933 145.547 149.947 144.8 151.12C142.133 155.28 138.827 159.387 134.88 163.44C131.04 167.493 126.507 171.12 121.28 174.32C121.173 176.667 120.8 179.333 120.16 182.32C119.627 185.2 118.827 188.24 117.76 191.44C115.733 197.947 112.48 204.507 108 211.12C103.627 217.733 98.4 223.813 92.32 229.36C86.24 234.907 79.6267 239.333 72.48 242.64C65.3333 246.053 58.0267 247.76 50.56 247.76ZM55.84 188.4C64.8 188.4 74.24 187.12 84.16 184.56C94.1867 181.893 103.573 178.267 112.32 173.68C112.533 172.293 112.64 170.96 112.64 169.68C112.64 168.293 112.64 166.96 112.64 165.68C112.64 154.8 110.72 145.733 106.88 138.48C103.147 131.227 97.92 125.787 91.2 122.16C84.48 118.533 76.64 116.72 67.68 116.72C60.7467 116.72 54.1867 117.787 48 119.92C41.92 122.053 36.48 125.04 31.68 128.88C26.9867 132.72 23.3067 137.253 20.64 142.48C17.9733 147.707 16.64 153.467 16.64 159.76C16.64 162.64 17.0133 165.787 17.76 169.2C18.6133 172.507 20.5333 175.493 23.52 178.16C25.0133 174.96 27.04 171.387 29.6 167.44C32.16 163.387 35.0933 159.333 38.4 155.28C41.8133 151.12 45.44 147.333 49.28 143.92C53.2267 140.507 57.28 137.787 61.44 135.76C65.7067 133.627 69.9733 132.56 74.24 132.56C76.0533 132.56 77.8667 132.773 79.68 133.2C81.6 133.627 83.4133 134.373 85.12 135.44C85.9733 135.973 86.4 136.453 86.4 136.88C86.4 137.2 86.1333 137.467 85.6 137.68C85.1733 137.893 84.5867 137.893 83.84 137.68C82.4533 137.253 80.9067 137.04 79.2 137.04C75.36 137.04 71.4667 138.213 67.52 140.56C63.5733 142.8 59.7333 145.787 56 149.52C52.2667 153.147 48.8 157.093 45.6 161.36C42.4 165.52 39.5733 169.627 37.12 173.68C34.7733 177.627 32.96 180.987 31.68 183.76C38.1867 186.853 46.24 188.4 55.84 188.4ZM51.84 243.92C57.8133 243.92 63.6267 242.427 69.28 239.44C75.04 236.453 80.4267 232.4 85.44 227.28C90.56 222.16 95.0933 216.453 99.04 210.16C102.987 203.867 106.133 197.413 108.48 190.8C109.12 188.987 109.707 187.12 110.24 185.2C110.773 183.173 111.093 181.253 111.2 179.44C102.56 184.027 93.3333 187.547 83.52 190C73.7067 192.453 64.32 193.68 55.36 193.68C45.44 193.68 36.8 192.24 29.44 189.36C26.1333 197.787 24.48 206.053 24.48 214.16C24.48 224.08 27.04 231.547 32.16 236.56C37.3867 241.467 43.9467 243.92 51.84 243.92ZM170.971 179.088V225.904C170.971 229.264 171.568 231.765 172.763 233.408C174.032 234.976 176.272 235.76 179.483 235.76V238.112C177.168 237.888 174.854 237.776 172.539 237.776C170.374 237.776 168.283 237.888 166.267 238.112C164.326 238.336 162.534 238.747 160.891 239.344V226.128C159.024 230.981 156.374 234.453 152.939 236.544C149.579 238.56 146.107 239.568 142.523 239.568C139.91 239.568 137.632 239.195 135.691 238.448C133.75 237.701 132.144 236.656 130.875 235.312C129.456 233.819 128.486 231.877 127.963 229.488C127.44 227.099 127.179 224.149 127.179 220.64V192.528C127.179 189.168 126.582 186.704 125.387 185.136C124.192 183.493 121.952 182.672 118.667 182.672V180.32C121.056 180.544 123.371 180.656 125.611 180.656C127.776 180.656 129.83 180.544 131.771 180.32C133.787 180.021 135.616 179.611 137.259 179.088V223.104C137.259 225.419 137.408 227.547 137.707 229.488C138.006 231.429 138.752 232.997 139.947 234.192C141.142 235.387 143.083 235.984 145.771 235.984C148.683 235.984 151.259 235.088 153.499 233.296C155.814 231.504 157.606 229.077 158.875 226.016C160.219 222.955 160.891 219.52 160.891 215.712V192.528C160.891 189.168 160.294 186.704 159.099 185.136C157.904 183.493 155.664 182.672 152.379 182.672V180.32C154.768 180.544 157.083 180.656 159.323 180.656C161.488 180.656 163.542 180.544 165.483 180.32C167.499 180.021 169.328 179.611 170.971 179.088ZM220.033 178.752C222.049 178.752 223.804 179.163 225.297 179.984C226.865 180.805 228.06 181.888 228.881 183.232C229.777 184.501 230.225 185.957 230.225 187.6C230.225 189.467 229.628 191.109 228.433 192.528C227.313 193.947 225.782 194.656 223.841 194.656C222.273 194.656 220.892 194.171 219.697 193.2C218.502 192.155 217.905 190.699 217.905 188.832C217.905 187.413 218.278 186.219 219.025 185.248C219.846 184.203 220.742 183.381 221.713 182.784C221.19 182.037 220.406 181.664 219.361 181.664C217.046 181.664 214.918 182.373 212.977 183.792C211.036 185.136 209.393 186.891 208.049 189.056C206.705 191.221 205.66 193.536 204.913 196C204.166 198.389 203.793 200.629 203.793 202.72V226.464C203.793 230.123 204.838 232.587 206.929 233.856C209.094 235.051 212.006 235.648 215.665 235.648V238C213.948 237.925 211.521 237.851 208.385 237.776C205.249 237.627 201.926 237.552 198.417 237.552C195.878 237.552 193.34 237.627 190.801 237.776C188.337 237.851 186.47 237.925 185.201 238V235.648C188.262 235.648 190.428 235.088 191.697 233.968C193.041 232.848 193.713 230.72 193.713 227.584V192.528C193.713 189.168 193.116 186.704 191.921 185.136C190.726 183.493 188.486 182.672 185.201 182.672V180.32C187.59 180.544 189.905 180.656 192.145 180.656C194.31 180.656 196.364 180.544 198.305 180.32C200.321 180.021 202.15 179.611 203.793 179.088V193.088C204.614 190.923 205.772 188.757 207.265 186.592C208.833 184.352 210.7 182.485 212.865 180.992C215.03 179.499 217.42 178.752 220.033 178.752ZM278.775 180.32V182.672C276.909 182.672 275.266 182.821 273.847 183.12C272.429 183.344 271.495 184.091 271.047 185.36C270.599 186.629 270.935 188.869 272.055 192.08L283.703 225.456L282.919 225.344L299.383 179.872L301.623 180.768L281.127 238.56C280.829 238.56 280.53 238.56 280.231 238.56C279.933 238.56 279.597 238.56 279.223 238.56L260.855 188.944C259.661 185.957 258.466 184.165 257.271 183.568C256.151 182.971 255.181 182.672 254.359 182.672V180.32C255.853 180.544 257.383 180.731 258.951 180.88C260.594 180.955 262.349 180.992 264.215 180.992C266.53 180.992 268.957 180.917 271.495 180.768C274.109 180.619 276.535 180.469 278.775 180.32ZM340.263 180.32V182.56C338.845 182.709 337.501 183.344 336.231 184.464C335.037 185.509 333.954 187.488 332.983 190.4L316.743 238.56C316.445 238.56 316.146 238.56 315.847 238.56C315.549 238.56 315.213 238.56 314.839 238.56L296.807 192.752L299.383 179.872C299.831 179.872 300.242 179.872 300.615 179.872C301.063 179.872 301.511 179.872 301.959 179.872L319.431 226.128L318.535 226.8L329.623 193.088C330.445 190.549 330.743 188.571 330.519 187.152C330.37 185.659 329.623 184.576 328.279 183.904C327.01 183.157 325.031 182.709 322.343 182.56V180.32C323.687 180.395 324.845 180.469 325.815 180.544C326.786 180.544 327.719 180.581 328.615 180.656C329.586 180.656 330.631 180.656 331.751 180.656C333.469 180.656 334.999 180.619 336.343 180.544C337.762 180.469 339.069 180.395 340.263 180.32ZM370.251 178.752C375.029 178.752 379.323 179.797 383.131 181.888C386.939 183.979 389.963 187.264 392.203 191.744C394.517 196.224 395.675 202.048 395.675 209.216C395.675 216.384 394.517 222.208 392.203 226.688C389.963 231.093 386.939 234.341 383.131 236.432C379.323 238.523 375.029 239.568 370.251 239.568C365.547 239.568 361.253 238.523 357.371 236.432C353.563 234.341 350.501 231.093 348.187 226.688C345.947 222.208 344.827 216.384 344.827 209.216C344.827 202.048 345.947 196.224 348.187 191.744C350.501 187.264 353.563 183.979 357.371 181.888C361.253 179.797 365.547 178.752 370.251 178.752ZM370.251 180.992C365.995 180.992 362.485 183.195 359.723 187.6C357.035 192.005 355.691 199.211 355.691 209.216C355.691 219.221 357.035 226.427 359.723 230.832C362.485 235.163 365.995 237.328 370.251 237.328C374.507 237.328 377.979 235.163 380.667 230.832C383.429 226.427 384.811 219.221 384.811 209.216C384.811 199.211 383.429 192.005 380.667 187.6C377.979 183.195 374.507 180.992 370.251 180.992ZM439.002 178.752C441.018 178.752 442.773 179.163 444.266 179.984C445.834 180.805 447.029 181.888 447.85 183.232C448.746 184.501 449.194 185.957 449.194 187.6C449.194 189.467 448.597 191.109 447.402 192.528C446.282 193.947 444.751 194.656 442.81 194.656C441.242 194.656 439.861 194.171 438.666 193.2C437.471 192.155 436.874 190.699 436.874 188.832C436.874 187.413 437.247 186.219 437.994 185.248C438.815 184.203 439.711 183.381 440.682 182.784C440.159 182.037 439.375 181.664 438.33 181.664C436.015 181.664 433.887 182.373 431.946 183.792C430.005 185.136 428.362 186.891 427.018 189.056C425.674 191.221 424.629 193.536 423.882 196C423.135 198.389 422.762 200.629 422.762 202.72V226.464C422.762 230.123 423.807 232.587 425.898 233.856C428.063 235.051 430.975 235.648 434.634 235.648V238C432.917 237.925 430.49 237.851 427.354 237.776C424.218 237.627 420.895 237.552 417.386 237.552C414.847 237.552 412.309 237.627 409.77 237.776C407.306 237.851 405.439 237.925 404.17 238V235.648C407.231 235.648 409.397 235.088 410.666 233.968C412.01 232.848 412.682 230.72 412.682 227.584V192.528C412.682 189.168 412.085 186.704 410.89 185.136C409.695 183.493 407.455 182.672 404.17 182.672V180.32C406.559 180.544 408.874 180.656 411.114 180.656C413.279 180.656 415.333 180.544 417.274 180.32C419.29 180.021 421.119 179.611 422.762 179.088V193.088C423.583 190.923 424.741 188.757 426.234 186.592C427.802 184.352 429.669 182.485 431.834 180.992C433.999 179.499 436.389 178.752 439.002 178.752ZM469.441 150.192V227.584C469.441 230.72 470.001 232.848 471.121 233.968C472.241 235.088 474.145 235.648 476.833 235.648V238C475.639 237.925 473.847 237.851 471.457 237.776C469.143 237.627 466.791 237.552 464.401 237.552C461.863 237.552 459.287 237.627 456.673 237.776C454.06 237.851 452.119 237.925 450.849 238V235.648C453.911 235.648 456.076 235.088 457.345 233.968C458.689 232.848 459.361 230.72 459.361 227.584V163.632C459.361 160.272 458.764 157.808 457.569 156.24C456.375 154.597 454.135 153.776 450.849 153.776V151.424C453.239 151.648 455.553 151.76 457.793 151.76C459.959 151.76 462.012 151.648 463.953 151.424C465.969 151.125 467.799 150.715 469.441 150.192ZM505.057 180.32V182.56C503.191 182.709 501.436 183.232 499.793 184.128C498.151 184.949 496.545 186.181 494.977 187.824L479.185 204.4L480.753 201.264L501.585 229.824C502.855 231.541 504.049 232.885 505.169 233.856C506.364 234.827 507.783 235.424 509.425 235.648V238C508.604 237.925 507.297 237.851 505.505 237.776C503.788 237.627 502.071 237.552 500.353 237.552C498.039 237.552 495.687 237.627 493.297 237.776C490.908 237.851 489.116 237.925 487.921 238V235.648C489.415 235.648 490.46 235.275 491.057 234.528C491.655 233.781 491.543 232.885 490.721 231.84L477.841 213.024C476.423 211.008 475.116 209.701 473.921 209.104C472.801 208.507 471.159 208.171 468.993 208.096V205.856C471.383 205.557 473.324 205.072 474.817 204.4C476.311 203.653 477.729 202.571 479.073 201.152L487.361 192.528C489.751 190.064 490.945 188.123 490.945 186.704C490.945 185.211 490.161 184.165 488.593 183.568C487.1 182.896 485.121 182.56 482.657 182.56V180.32C484.599 180.395 486.764 180.507 489.153 180.656C491.617 180.731 493.671 180.768 495.313 180.768C496.583 180.768 497.815 180.768 499.009 180.768C500.204 180.693 501.324 180.619 502.369 180.544C503.415 180.469 504.311 180.395 505.057 180.32ZM533.484 178.752C536.47 178.752 539.009 179.237 541.1 180.208C543.19 181.179 544.721 182.075 545.692 182.896C548.156 184.912 549.649 183.568 550.172 178.864H552.748C552.598 180.955 552.486 183.456 552.412 186.368C552.337 189.205 552.3 193.051 552.3 197.904H549.724C549.276 195.141 548.492 192.453 547.372 189.84C546.326 187.227 544.758 185.099 542.668 183.456C540.577 181.739 537.852 180.88 534.492 180.88C531.878 180.88 529.676 181.627 527.884 183.12C526.166 184.539 525.308 186.667 525.308 189.504C525.308 191.744 525.98 193.685 527.324 195.328C528.668 196.896 530.422 198.389 532.588 199.808C534.753 201.152 537.105 202.645 539.644 204.288C542.481 206.08 545.057 207.909 547.372 209.776C549.686 211.643 551.516 213.696 552.86 215.936C554.278 218.176 554.988 220.827 554.988 223.888C554.988 227.323 554.092 230.197 552.3 232.512C550.508 234.827 548.156 236.581 545.244 237.776C542.406 238.971 539.27 239.568 535.836 239.568C534.193 239.568 532.625 239.419 531.132 239.12C529.713 238.896 528.332 238.523 526.988 238C526.241 237.627 525.457 237.179 524.636 236.656C523.889 236.133 523.142 235.573 522.396 234.976C521.649 234.379 520.977 234.416 520.38 235.088C519.782 235.685 519.334 236.917 519.036 238.784H516.46C516.609 236.395 516.721 233.483 516.796 230.048C516.87 226.613 516.908 222.059 516.908 216.384H519.484C520.006 220.565 520.753 224.224 521.724 227.36C522.694 230.496 524.225 232.96 526.316 234.752C528.406 236.469 531.318 237.328 535.052 237.328C536.545 237.328 538.038 236.992 539.532 236.32C541.1 235.648 542.406 234.528 543.452 232.96C544.497 231.392 545.02 229.301 545.02 226.688C545.02 223.403 543.825 220.715 541.436 218.624C539.046 216.533 536.022 214.331 532.364 212.016C529.676 210.299 527.137 208.581 524.748 206.864C522.433 205.147 520.529 203.205 519.036 201.04C517.617 198.875 516.908 196.261 516.908 193.2C516.908 189.84 517.654 187.115 519.148 185.024C520.716 182.859 522.769 181.291 525.308 180.32C527.846 179.275 530.572 178.752 533.484 178.752Z" fill="#0A090C"/>
</svg>
