<svg width="12" height="15" viewBox="0 0 12 15" fill="none" xmlns="http://www.w3.org/2000/svg">
<path d="M5.98506 0C2.68429 0 0.000488281 2.74737 0.000488281 6.12632C0.000488281 9.42632 5.46064 14.6526 5.692 14.8737C5.78455 14.9526 5.89252 15 6.00049 15C6.10846 15 6.21643 14.9526 6.30897 14.8737C6.54033 14.6526 12.0005 9.42632 12.0005 6.12632C11.9696 2.74737 9.28583 0 5.98506 0ZM5.98506 8.79474C4.55062 8.79474 3.37838 7.59474 3.37838 6.12632C3.37838 4.65789 4.55062 3.45789 5.98506 3.45789C7.41951 3.45789 8.59175 4.65789 8.59175 6.12632C8.59175 7.59474 7.41951 8.79474 5.98506 8.79474Z" fill="#A9714B"/>
</svg>
