<svg width="64" height="64" viewBox="0 0 64 64" fill="none" xmlns="http://www.w3.org/2000/svg">
<path d="M3.93991 26.0034H0.492092C0.215948 26.0034 0.00292969 26.2269 0.00292969 26.4925C0.00292969 26.7582 0.226471 26.9817 0.492092 26.9817H4.4396L10.5621 26.9843V30.6662H3.44035C3.16421 30.6662 2.95119 30.8898 2.95119 31.1554C2.95119 31.4315 3.17473 31.6446 3.44035 31.6446H20.6293C20.9054 31.6446 21.1185 31.421 21.1185 31.1554C21.1185 30.8793 20.8949 30.6662 20.6293 30.6662H11.5511V26.9843H23.599C23.8752 26.9843 24.0882 26.7608 24.0882 26.4952C24.0882 26.2295 23.8647 26.006 23.599 26.006H18.1814V22.3241H23.599C23.8752 22.3241 24.0882 22.1006 24.0882 21.8349C24.0882 21.5693 23.8647 21.3458 23.599 21.3458L0.492832 21.3431C0.216689 21.3431 0.00367031 21.5667 0.00367031 21.8323C0.00367031 22.0979 0.227212 22.3215 0.492832 22.3215H3.94065L3.93991 26.0034ZM17.1815 22.3215V26.0034H4.92085V22.3294L17.1815 22.332V22.3215Z" fill="white"/>
<path d="M61.4741 34.0111L54.2629 21.7295C56.0381 20.4961 57.5976 18.9944 58.8836 17.2402C58.8942 17.2297 58.8942 17.2192 58.9047 17.1981C58.9257 17.1666 58.9362 17.1376 58.9468 17.0956C58.9573 17.064 58.9678 17.0351 58.9783 17.0035C58.9783 16.9614 58.9783 16.9325 58.9678 16.8904V16.8089C58.9678 16.8089 58.9678 16.7984 58.9573 16.7984C58.9362 16.7379 58.9073 16.6748 58.8652 16.6248C58.8547 16.6038 58.8337 16.5933 58.8153 16.5827C58.7732 16.5512 58.7443 16.5222 58.7022 16.5012C58.6917 16.5012 58.6917 16.4907 58.6811 16.4907C54.9677 14.9811 51.1622 13.9712 47.3886 13.511C47.123 13.4794 46.8679 13.674 46.8389 13.9397C46.8074 14.2053 47.002 14.4604 47.2676 14.4893C50.5024 14.8864 53.7661 15.6938 56.9693 16.8878C46.8812 19.8254 36.9843 19.8359 27.5089 16.9088C30.7437 15.7464 33.9758 14.939 37.1472 14.5314C37.4128 14.4999 37.6074 14.2448 37.5759 13.9818C37.5443 13.7162 37.2892 13.5215 37.0262 13.5531C33.3443 14.0317 29.5706 15.0127 25.8252 16.4907L25.8147 16.5012C25.7542 16.5328 25.6911 16.5617 25.6517 16.6143C25.6096 16.6643 25.5701 16.7169 25.5491 16.7879V16.7984V16.8089V16.8405C25.5386 16.901 25.5281 16.9536 25.5386 17.0141C25.5386 17.0351 25.5491 17.0562 25.5596 17.0746C25.5701 17.1245 25.5912 17.1666 25.6096 17.2061C25.6201 17.2166 25.6201 17.2271 25.6201 17.2376C26.9062 19.0444 28.4657 20.5829 30.2304 21.8268L23.0689 34.0161C22.5482 34.9129 22.1195 35.8413 21.7645 36.7907C20.5205 36.9327 19.3765 37.2299 18.3666 37.6691C18.1825 37.7506 18.0721 37.9242 18.0721 38.1188V38.9157L17.1937 38.537C17.0412 38.466 16.8465 38.487 16.715 38.5869C15.2265 39.6284 14.164 41.0565 13.5618 42.8211C13.5013 42.9947 13.5513 43.1998 13.6854 43.3313L14.164 43.81H13.6749C13.4408 43.81 13.2357 43.973 13.1962 44.2071C12.8491 46.0533 12.9727 48.1651 13.5644 50.3164C13.0042 51.4183 12.6361 52.3151 12.4625 52.7859H12.1758C12.0128 52.3572 11.6867 51.5419 11.1764 50.5531C11.7182 48.5754 11.8287 46.6371 11.5026 44.9435C11.4605 44.7094 11.258 44.5464 11.0239 44.5464H10.6768L11.0555 44.1677C11.187 44.0362 11.229 43.8416 11.1791 43.6575C10.6294 42.0243 9.64849 40.7198 8.27303 39.7494C8.13101 39.6574 7.94691 39.6363 7.79438 39.6994L6.98964 40.0098V39.3365C6.98964 39.1419 6.87655 38.9578 6.69509 38.8868C5.11448 38.203 3.20519 37.9085 1.04343 37.99C0.8304 38.0005 0.646311 38.1426 0.59371 38.3477C0.0835086 40.0913 -0.100553 41.7561 0.0519462 43.2946C0.0835052 43.5497 0.286011 43.7338 0.541108 43.7338H1.20385L0.488513 44.549C0.375426 44.6726 0.33598 44.8436 0.385949 45.0093C0.783064 46.3663 1.46686 47.5497 2.42673 48.5281C2.57926 48.6806 2.81333 48.7227 3.00794 48.6202L4.36495 47.8969C4.60954 47.7733 4.69107 47.4683 4.57009 47.2342C4.4386 46.9896 4.14141 46.8976 3.90735 47.0291L2.88696 47.5708C2.22422 46.8265 1.73508 45.9587 1.40896 44.9803L2.65294 43.5523C2.77654 43.4103 2.80547 43.2051 2.73446 43.0211C2.65294 42.8475 2.47936 42.7344 2.28474 42.7344L0.990811 42.7318C0.930322 41.5483 1.07234 40.2728 1.43 38.9473C3.1631 38.9158 4.70426 39.1524 6.00082 39.6521V40.7436C6.00082 40.9066 6.08234 41.0592 6.22436 41.1512C6.36637 41.2432 6.53995 41.2538 6.69248 41.1933L7.87593 40.6831C8.88582 41.4484 9.63011 42.4478 10.0903 43.6523L9.10146 44.6412C8.95945 44.7832 8.91737 44.9988 8.9989 45.1829C9.06991 45.367 9.254 45.488 9.45913 45.488H10.5821C10.7452 46.6399 10.6952 47.9154 10.4401 49.2225C10.1534 48.7438 9.84837 48.2547 9.49068 47.7524L9.88779 46.824C9.99036 46.5689 9.87727 46.2822 9.62217 46.1823C9.36707 46.0797 9.08041 46.1928 8.98048 46.4479L8.80691 46.845C8.4282 46.3664 8.01004 45.8956 7.56293 45.4564L8.10469 43.9364C8.19674 43.6813 8.06261 43.3946 7.81014 43.3052C7.55504 43.2131 7.26838 43.3473 7.17896 43.5997L6.78185 44.7227C6.51623 44.4992 6.24008 44.273 5.95603 44.0705C5.73249 43.9075 5.42479 43.9574 5.27227 44.1836C5.10921 44.4071 5.15918 44.7148 5.38536 44.8674C5.62994 45.0409 5.864 45.225 6.09019 45.417L5.24599 45.772C4.99089 45.8746 4.86729 46.1586 4.96985 46.4137C5.05137 46.6084 5.23547 46.7188 5.43008 46.7188C5.49057 46.7188 5.55369 46.7083 5.61418 46.6873L6.87916 46.1771C7.35781 46.6557 7.79701 47.1659 8.1941 47.6866L7.52084 48.018C7.27626 48.1311 7.1737 48.4256 7.28678 48.6702C7.3683 48.8438 7.5524 48.9569 7.73649 48.9569C7.8075 48.9569 7.87851 48.9464 7.94952 48.9069L8.79634 48.5098C9.19346 49.0805 9.54063 49.6512 9.8378 50.1929C7.86799 50.3639 5.9692 49.9142 4.40967 48.8938C4.18612 48.7412 3.87843 48.8122 3.72591 49.0358C3.57339 49.2593 3.64438 49.567 3.86792 49.7195C5.3775 50.7084 7.16318 51.2186 9.03046 51.2186C9.45914 51.2186 9.88779 51.187 10.327 51.1266C10.6637 51.7893 10.9082 52.36 11.0713 52.7597H8.25467C7.58141 52.7597 7.00019 53.22 6.84769 53.8932L5.52218 59.9736V60.0235C5.52218 60.0446 5.51166 60.0551 5.51166 60.0735C5.51166 62.2353 7.26584 63.9894 9.4276 63.9894H16.8126C17.8645 63.9894 18.8428 63.5818 19.5766 62.8376C20.3209 62.1038 20.7285 61.1123 20.7285 60.063C20.7285 60.042 20.718 60.0314 20.718 60.013V59.9631L19.3925 53.8827C19.2399 53.22 18.6693 52.7492 17.9855 52.7492H13.4778C13.6619 52.2995 13.946 51.6473 14.3352 50.882C14.8138 50.9425 15.2951 50.9846 15.7737 50.9846C17.7935 50.9846 19.7317 50.4244 21.3649 49.3619C21.4359 49.3119 21.4964 49.2488 21.528 49.1778C22.1907 51.1266 23.169 52.9833 24.4972 54.6454L27.4032 58.3062L26.0988 63.3767C26.0567 63.5187 26.0883 63.6818 26.1908 63.8054C26.2829 63.929 26.4249 64 26.5774 64H57.9337C58.0863 64 58.2283 63.929 58.3203 63.8054C58.4124 63.6818 58.4439 63.5292 58.4124 63.3767L57.1079 58.3062L60.014 54.6454C64.6847 48.7728 65.277 40.4777 61.4741 34.0111ZM18.896 62.1566C18.3463 62.7062 17.6099 63.0139 16.8263 63.0139H9.4413C7.99224 63.0139 6.77984 61.9541 6.54313 60.576H19.7215C19.6189 61.1651 19.3326 61.7174 18.896 62.1566ZM18.4358 54.1064L19.6403 59.595H6.6114L7.80535 54.117C7.85532 53.9039 8.03942 53.7593 8.25507 53.7593H17.9964C18.2121 53.7514 18.3937 53.8934 18.4358 54.1064ZM27.351 17.8953C32.1243 19.3549 37.0002 20.0886 41.9574 20.0886C46.9463 20.0886 52.0064 19.3443 57.1164 17.8637C53.4556 22.0873 47.8962 24.5463 41.9574 24.5043C39.4274 24.4832 37.021 24.0256 34.8067 23.1682H34.7962H34.7856C31.8901 22.0452 29.3498 20.2517 27.351 17.8953ZM46.4365 50.6089H38.0706C36.5611 50.6089 35.112 50.2512 33.8076 49.6095V44.7521C33.8076 43.9657 34.4493 43.324 35.2461 43.324H41.7446V45.5279H39.5513C39.2751 45.5279 39.0621 45.7514 39.0621 46.017C39.0621 46.2932 39.2856 46.5062 39.5513 46.5062H44.9268C45.203 46.5062 45.416 46.2826 45.416 46.017C45.416 45.7409 45.1924 45.5279 44.9268 45.5279H42.7335V43.324H49.5159C50.3022 43.324 50.9439 43.9657 50.9439 44.7521V49.4859C49.579 50.2117 48.0382 50.6089 46.4365 50.6089ZM49.5188 42.3352H42.7364L42.7337 41.2859C44.672 41.0413 46.1816 39.3897 46.1816 37.3778C46.1816 35.3475 42.9783 31.5315 42.6101 31.1055C42.5181 30.9924 42.3761 30.9319 42.2314 30.9319C42.0894 30.9319 41.9448 30.9924 41.8527 31.1055C41.4845 31.5342 38.2918 35.3502 38.2918 37.3778C38.2918 39.3871 39.8014 41.0386 41.7396 41.2859V42.3378L35.2464 42.3352C33.9104 42.3352 32.8295 43.4161 32.8295 44.7521V49.0467C31.7381 48.3314 30.7782 47.3951 30.0445 46.2616C28.2588 43.5476 27.9747 40.1419 29.2581 37.1619L34.8572 24.2461C37.061 25.043 39.4569 25.469 41.9473 25.4795H42.0787C44.7007 25.4795 47.2518 25.0114 49.6085 24.1435L55.2601 37.1589C56.5567 40.1386 56.2595 43.5444 54.4738 46.2587C53.79 47.3106 52.9142 48.1864 51.9227 48.8807L51.9253 44.7517C51.9359 43.4157 50.8442 42.3352 49.5188 42.3352ZM42.2341 37.654C41.958 37.654 41.745 37.8775 41.745 38.1431V40.2944C40.3485 40.0603 39.286 38.8454 39.286 37.3884C39.286 36.1339 41.1638 33.5434 42.2447 32.2074C43.3256 33.5434 45.2033 36.1339 45.2033 37.3884C45.2033 38.848 44.1329 40.0604 42.7444 40.2944V38.1431C42.7233 37.867 42.4997 37.654 42.2341 37.654ZM20.5977 46.9557V48.6809C18.925 49.7118 16.9052 50.1511 14.825 49.9564C15.1722 49.3331 15.5693 48.6704 16.0295 48.0077L17.4365 48.5678C17.497 48.5889 17.5601 48.5994 17.6206 48.5994C17.8152 48.5994 17.9993 48.4863 18.0808 48.2943C18.1834 48.0392 18.0598 47.7526 17.8047 47.6526L16.6317 47.1845C17.0815 46.6033 17.5706 46.0326 18.1019 45.5014L19.5088 46.0615C19.5693 46.0826 19.6324 46.0931 19.6929 46.0931C19.8875 46.0931 20.0716 45.98 20.1532 45.788C20.2557 45.5329 20.1321 45.2463 19.877 45.1463L18.9092 44.7597C19.1748 44.5362 19.451 44.31 19.735 44.1075C19.9586 43.9445 20.0112 43.6394 19.8481 43.4238C19.6851 43.2002 19.38 43.1476 19.1644 43.3107C18.8382 43.5447 18.5227 43.7998 18.2149 44.0655L17.7547 42.7794C17.6627 42.5243 17.376 42.3928 17.1235 42.4849C16.8684 42.5769 16.7369 42.853 16.829 43.116L17.4207 44.7992C16.9315 45.2883 16.4713 45.8091 16.0532 46.3298L15.685 45.2883C15.5929 45.0332 15.3063 44.9017 15.0538 44.9937C14.7987 45.0858 14.6672 45.3619 14.7593 45.6249L15.3405 47.2765C14.9223 47.8577 14.5541 48.4494 14.2281 49.0096C13.9335 47.5211 13.8704 46.0825 14.0545 44.7754H15.309C15.5141 44.7754 15.6877 44.6518 15.7692 44.4703C15.8402 44.2862 15.8007 44.0732 15.6666 43.9286L14.5647 42.8267C15.0749 41.4801 15.9007 40.3782 17.0236 39.5314L18.3386 40.1021C18.4911 40.1626 18.6647 40.1521 18.8067 40.06C18.9487 39.968 19.0302 39.8154 19.0302 39.6524V38.4374C20.4688 37.8772 22.1624 37.6115 24.0797 37.651C24.4768 39.129 24.6398 40.5387 24.5688 41.8641H23.1198C22.9252 41.8641 22.7516 41.9772 22.6701 42.1508C22.5885 42.3243 22.6201 42.5295 22.7516 42.682L24.1297 44.252C23.772 45.333 23.2223 46.3034 22.4886 47.1291L21.3472 46.5269C21.1947 46.4454 21.0106 46.4559 20.8581 46.5374C20.6898 46.6295 20.5977 46.7927 20.5977 46.9557ZM27.2092 63.0142L28.3217 58.688H56.1804L57.2928 63.0142H27.2092ZM56.333 57.7097H28.1875L25.2709 54.0489C23.8534 52.2737 22.8541 50.2539 22.2413 48.1316L22.3438 48.1815C22.5385 48.2841 22.7725 48.242 22.925 48.0895C23.9665 47.0191 24.7107 45.7436 25.1395 44.2734C25.1894 44.1104 25.15 43.9368 25.0369 43.8132L24.2006 42.8533H25.0158C25.2709 42.8533 25.4839 42.6587 25.505 42.4141C25.6786 40.7415 25.4734 38.9347 24.9238 37.049C24.8633 36.8439 24.6792 36.7019 24.4741 36.6914C23.9034 36.6703 23.3616 36.6703 22.833 36.7019C23.1381 35.9576 23.4852 35.2239 23.9033 34.5191L31.0331 22.3795C31.9615 22.9608 32.9398 23.471 33.9603 23.8996L28.3691 36.7838C26.941 40.0685 27.2671 43.8213 29.2264 46.822C30.2153 48.3316 31.5512 49.5361 33.0924 50.3619C33.1134 50.3724 33.1423 50.3934 33.1634 50.404C34.6519 51.1903 36.335 51.619 38.0892 51.619H46.4551C48.3013 51.619 50.066 51.1403 51.6176 50.2725C51.6676 50.2514 51.7097 50.2304 51.7491 50.1909C53.1561 49.3757 54.3922 48.2316 55.3206 46.8247C57.2904 43.8266 57.6059 40.0712 56.1779 36.7864L50.5367 23.7999C51.5571 23.3712 52.5249 22.8611 53.4533 22.2798L60.6356 34.5224C64.2254 40.6421 63.6757 48.4978 59.2575 54.0576L56.333 57.7097Z" fill="white"/>
<path d="M38.552 13.4666C39.1332 14.0478 39.1332 14.9972 38.552 15.5889C38.3574 15.7835 38.3574 16.0886 38.552 16.2832C38.6441 16.3752 38.7756 16.4252 38.8992 16.4252C39.0228 16.4252 39.1543 16.3752 39.2463 16.2832C40.2141 15.3154 40.2141 13.7427 39.2463 12.7749C38.6651 12.1937 38.6651 11.2443 39.2463 10.6526C40.2141 9.68478 40.2141 8.11212 39.2463 7.14431C39.0517 6.9497 38.7466 6.9497 38.552 7.14431C38.3574 7.33892 38.3574 7.644 38.552 7.83857C39.1333 8.41978 39.1333 9.36916 38.552 9.96088C37.5816 10.9261 37.5816 12.4988 38.552 13.4666Z" fill="white"/>
<path d="M41.9074 8.32496C42.7437 9.16128 42.7437 10.5288 41.9074 11.3651C41.7128 11.5597 41.7128 11.8648 41.9074 12.0594C41.9994 12.1514 42.1309 12.2014 42.2545 12.2014C42.3781 12.2014 42.5096 12.1514 42.6017 12.0594C43.8246 10.8365 43.8246 8.84566 42.6017 7.62275C41.7654 6.78643 41.7654 5.41891 42.6017 4.58259C43.8246 3.35969 43.8246 1.36886 42.6017 0.145959C42.4071 -0.048653 42.102 -0.048653 41.9074 0.145959C41.7128 0.340571 41.7128 0.645644 41.9074 0.840222C42.7437 1.67654 42.7437 3.04406 41.9074 3.88038C40.6845 5.11379 40.6845 7.10206 41.9074 8.32496Z" fill="white"/>
<path d="M45.2239 15.0575C45.316 15.1496 45.4475 15.1996 45.5711 15.1996C45.6947 15.1996 45.8262 15.1496 45.9182 15.0575C46.1128 14.8629 46.1128 14.5473 45.9182 14.3633C45.337 13.7821 45.337 12.8327 45.9182 12.241C46.886 11.2732 46.886 9.7005 45.9182 8.73269C45.7236 8.53808 45.4185 8.53808 45.224 8.73269C45.0293 8.9273 45.0293 9.23237 45.224 9.42695C45.8052 10.0082 45.8052 10.9575 45.224 11.5493C44.2535 12.5092 44.243 14.0897 45.2239 15.0575Z" fill="white"/>
<path d="M23.159 40.9598H23.2011C23.4772 40.9388 23.6797 40.7047 23.6613 40.4286C23.6297 39.9604 23.5587 39.4607 23.4667 38.9689C23.4167 38.7033 23.1616 38.5297 22.896 38.5823C22.6304 38.6323 22.4568 38.8874 22.5094 39.1635C22.6014 39.6238 22.6619 40.0709 22.6935 40.5101C22.6803 40.7652 22.9039 40.9598 23.159 40.9598Z" fill="white"/>
</svg>
