<svg width="69" height="64" viewBox="0 0 69 64" fill="none" xmlns="http://www.w3.org/2000/svg">
<path d="M32.3415 16.2314V15.8265C32.3415 13.2581 30.2562 11.1699 27.6849 11.1699H27.2598C24.6914 11.1699 22.6032 13.2552 22.6032 15.8265V16.2517C20.5381 17.7672 19.1816 20.1996 19.1816 22.9502V63.4474C19.1816 63.7511 19.4275 63.9854 19.7196 63.9854H35.2566C35.5603 63.9854 35.7945 63.7395 35.7945 63.4474V22.9502C35.7945 20.7289 34.9297 18.6436 33.3592 17.0731C33.0353 16.7607 32.7001 16.4917 32.3415 16.2314ZM23.6675 15.8294C23.6675 13.854 25.2727 12.2517 27.2452 12.2517H27.6704C29.6458 12.2517 31.2481 13.8569 31.2481 15.8294V25.3653C31.2481 25.9379 30.7882 26.3978 30.2156 26.3978H24.7087C24.136 26.3978 23.6762 25.9379 23.6762 25.3653L23.6791 15.8294H23.6675ZM34.7071 62.9127H20.246V22.9648C20.246 20.8679 21.1542 18.9822 22.5917 17.6575V25.3653C22.5917 26.5308 23.5461 27.4853 24.7117 27.4853H30.2186C31.3841 27.4853 32.3386 26.5308 32.3386 25.3653V17.6138C32.4283 17.6919 32.5064 17.77 32.596 17.8481C33.9641 19.2162 34.7161 21.0354 34.7161 22.9645L34.719 62.9124L34.7071 62.9127Z" fill="white"/>
<path d="M29.1197 31.0857H25.6981C25.3944 31.0857 25.1602 31.3315 25.1602 31.6237C25.1602 31.9158 25.406 32.1616 25.6981 32.1616H29.1197C29.4234 32.1616 29.6576 31.9158 29.6576 31.6237C29.6605 31.3315 29.4234 31.0857 29.1197 31.0857Z" fill="white"/>
<path d="M29.1197 34.2503H25.6981C25.3944 34.2503 25.1602 34.4961 25.1602 34.7883C25.1602 35.092 25.406 35.3262 25.6981 35.3262H29.1197C29.4234 35.3262 29.6576 35.0804 29.6576 34.7883C29.6605 34.4846 29.4234 34.2503 29.1197 34.2503Z" fill="white"/>
<path d="M29.1197 37.4348H25.6981C25.3944 37.4348 25.1602 37.6807 25.1602 37.9728C25.1602 38.2765 25.406 38.5107 25.6981 38.5107H29.1197C29.4234 38.5107 29.6576 38.2649 29.6576 37.9728C29.6605 37.6836 29.4234 37.4348 29.1197 37.4348Z" fill="white"/>
<path d="M13.099 23.0077C12.7404 20.7865 10.8228 19.08 8.50033 19.08L8.07517 19.0829C5.74114 19.0829 3.81198 20.8096 3.47649 23.0425C1.368 24.558 0 27.0135 0 29.7959V63.462C0 63.7657 0.245842 64 0.53796 64H16.0749C16.3786 64 16.6129 63.7542 16.6129 63.462V29.7848C16.6129 27.5635 15.7481 25.4782 14.1776 23.9077C13.8507 23.5693 13.4808 23.2651 13.099 23.0077ZM4.49459 23.7366C4.49459 21.7611 6.09982 20.1589 8.07229 20.1589H8.49746C10.4729 20.1589 12.0752 21.7641 12.0752 23.7366V32.1848C12.0752 32.7574 11.6153 33.2173 11.0427 33.2173H5.53867C4.966 33.2173 4.50615 32.7574 4.50615 32.1848V23.7366H4.49459ZM15.5342 62.9122H1.07311V29.7843C1.07311 27.6875 1.9813 25.8017 3.41875 24.477V32.1848C3.41875 33.3503 4.37323 34.3048 5.5388 34.3048H11.0457C12.2112 34.3048 13.1657 33.3503 13.1657 32.1848V24.4452C13.2554 24.5232 13.3335 24.5898 13.4231 24.6708C14.7912 26.0388 15.5432 27.858 15.5432 29.7872L15.5461 62.9121L15.5342 62.9122Z" fill="white"/>
<path d="M9.94873 37.9176H6.52429C6.2206 37.9176 5.98633 38.1634 5.98633 38.4556C5.98633 38.7593 6.23217 38.9935 6.52429 38.9935H9.94584C10.2495 38.9935 10.4838 38.7477 10.4838 38.4556C10.4867 38.1519 10.2495 37.9176 9.94873 37.9176Z" fill="white"/>
<path d="M9.94873 41.0703H6.52429C6.2206 41.0703 5.98633 41.3161 5.98633 41.6082C5.98633 41.9119 6.23217 42.1462 6.52429 42.1462H9.94584C10.2495 42.1462 10.4838 41.9003 10.4838 41.6082C10.4867 41.3161 10.2495 41.0703 9.94873 41.0703Z" fill="white"/>
<path d="M48.2925 37.9176H44.871C44.5673 37.9176 44.333 38.1634 44.333 38.4556C44.333 38.7593 44.5788 38.9935 44.871 38.9935H48.2925C48.5962 38.9935 48.8305 38.7477 48.8305 38.4556C48.8305 38.1519 48.5846 37.9176 48.2925 37.9176Z" fill="white"/>
<path d="M48.2925 41.0703H44.871C44.5673 41.0703 44.333 41.3161 44.333 41.6082C44.333 41.9119 44.5788 42.1462 44.871 42.1462H48.2925C48.5962 42.1462 48.8305 41.9003 48.8305 41.6082C48.8305 41.3161 48.5846 41.0703 48.2925 41.0703Z" fill="white"/>
<path d="M27.4817 9.20922C27.7854 9.20922 28.0197 8.96338 28.0197 8.67126V3.72259C28.0197 3.4189 27.7738 3.18463 27.4817 3.18463C27.178 3.18463 26.9438 3.43047 26.9438 3.72259V8.67126C26.9322 8.96338 27.178 9.20922 27.4817 9.20922Z" fill="white"/>
<path d="M23.6237 9.04121C23.7249 9.14244 23.8695 9.19739 24.0055 9.19739C24.1414 9.19739 24.286 9.14244 24.3872 9.04121C24.6013 8.82718 24.6013 8.49168 24.3872 8.27769L21.3908 5.28128C21.1768 5.07015 20.8413 5.07015 20.6273 5.28418C20.4133 5.4982 20.4133 5.83371 20.6273 6.0477L23.6237 9.04121Z" fill="white"/>
<path d="M30.9505 9.20924C31.0864 9.20924 31.2311 9.15429 31.3323 9.05305L34.3287 6.05665C34.5427 5.84262 34.5427 5.50712 34.3287 5.29313C34.1118 5.07042 33.7763 5.07043 33.5622 5.28445L30.5658 8.28086C30.3518 8.49488 30.3518 8.83039 30.5658 9.04438C30.6699 9.15429 30.8146 9.20924 30.9505 9.20924Z" fill="white"/>
<path d="M27.4822 1.98412C27.7858 1.98412 28.0201 1.73828 28.0201 1.44616V0.537959C28.0201 0.234269 27.7743 0 27.4822 0C27.19 0 26.9326 0.234276 26.9326 0.537959V1.44616C26.9326 1.73828 27.1785 1.98412 27.4822 1.98412Z" fill="white"/>
<path d="M51.1867 18.6437C51.1867 18.6437 51.0508 18.7565 50.8281 18.9474C50.6025 19.1498 50.5822 19.4853 50.7818 19.7109C50.8946 19.8353 51.0392 19.8902 51.1867 19.8902C51.3111 19.8902 51.4441 19.844 51.5454 19.7543C51.7478 19.575 51.8606 19.4853 51.8693 19.4737C52.1036 19.2829 52.1383 18.9473 51.9474 18.7102C51.771 18.4991 51.421 18.4528 51.1867 18.6437Z" fill="white"/>
<path d="M53.9354 52.301C53.6317 52.301 53.3975 52.5468 53.3975 52.8389V56.541C53.3975 56.8447 53.6433 57.079 53.9354 57.079C54.2391 57.079 54.4734 56.8331 54.4734 56.541V52.8389C54.4849 52.5468 54.2391 52.301 53.9354 52.301Z" fill="white"/>
<path d="M53.9354 48.4078C53.6317 48.4078 53.3975 48.6537 53.3975 48.9458V50.4382C53.3975 50.7419 53.6433 50.9761 53.9354 50.9761C54.2391 50.9761 54.4734 50.7303 54.4734 50.4382V48.9458C54.4849 48.6537 54.2391 48.4078 53.9354 48.4078Z" fill="white"/>
<path d="M54.1029 22.4147C57.9177 20.4624 58.3111 16.7834 58.343 15.8058L68.5178 5.63097C68.619 5.52974 68.674 5.3967 68.674 5.2492C68.674 5.10458 68.619 4.96864 68.5178 4.86742L65.9148 2.2644C65.7008 2.05038 65.3653 2.05038 65.1513 2.2644L54.9764 12.4392C53.9902 12.474 50.3198 12.8644 48.3676 16.6677C48.142 17.1044 47.9974 17.5527 47.8846 17.8911C47.7949 18.1601 47.6387 18.5968 47.3784 19.103C47.2107 19.0798 47.0429 19.0682 46.8636 19.0682H46.4384C44.1044 19.0682 42.1753 20.7949 41.8398 23.0278C39.7429 24.5317 38.3633 26.9873 38.3633 29.7697V63.4358C38.3633 63.7395 38.6091 63.9738 38.9012 63.9738H67.2164C67.5201 63.9738 67.7543 63.7279 67.7543 63.4358L67.7572 45.0645C67.7572 44.7608 67.5114 44.5266 67.2193 44.5266H65.3913V38.0306C65.3913 37.7269 65.1455 37.4926 64.8534 37.4926H54.9939V29.7848C54.9939 27.5636 54.1291 25.4783 52.5586 23.9078C52.3446 23.6937 52.1103 23.5028 51.8847 23.312C52.3099 23.1095 52.6801 22.9764 52.9172 22.8955C53.2296 22.7856 53.6777 22.6258 54.1029 22.4147ZM57.805 14.8083L55.9655 12.9688L58.233 10.7013L60.0725 12.5408L57.805 14.8083ZM65.5357 3.39846L67.3752 5.23796L60.8474 11.7658L59.0079 9.92629L65.5357 3.39846ZM42.8403 23.737C42.8403 21.7616 44.4456 20.1593 46.4181 20.1593H46.7217C46.4065 20.5961 46.0363 21.0444 45.5648 21.4608C45.452 21.5621 45.3855 21.6951 45.3855 21.8542C45.3855 21.9988 45.4405 22.1463 45.5417 22.2591L48.5265 25.2439C48.6277 25.3451 48.7608 25.4001 48.9083 25.4001H48.9314C49.076 25.4001 49.2235 25.3336 49.3247 25.2208C49.6834 24.8158 50.0536 24.4803 50.4354 24.1998V32.2082C50.4354 32.7808 49.9755 33.2407 49.4029 33.2407H43.896C43.3233 33.2407 42.8635 32.7808 42.8635 32.2082V23.737L42.8403 23.737ZM66.6463 62.9127H50.8717V45.6142H66.6434L66.6463 62.9127ZM64.2776 44.5266H53.249V38.5685H64.2776V44.5266ZM53.8799 29.7848V37.4926H52.7027C52.399 37.4926 52.1648 37.7384 52.1648 38.0305V44.5265H50.3368C50.0331 44.5265 49.7989 44.7724 49.7989 45.0645V62.9123H39.433L39.4301 29.7844C39.4301 27.6876 40.3383 25.8018 41.7758 24.4771V32.1849C41.7758 33.3504 42.7302 34.3049 43.8958 34.3049H49.4027C50.5682 34.3049 51.5227 33.3504 51.5227 32.1849V24.4334C51.6124 24.5115 51.6905 24.5896 51.7801 24.6677C53.1279 26.0358 53.8799 27.8556 53.8799 29.7848ZM48.8994 24.0755L48.3845 23.5607C48.9572 22.4731 49.8423 21.4522 50.5161 20.7551C50.7302 20.5411 50.7186 20.1941 50.5046 19.9916C50.2905 19.7776 49.9435 19.7892 49.741 20.0032C49.0787 20.6887 48.2139 21.6749 47.5863 22.7624L46.7012 21.8774C48.0693 20.4978 48.6882 18.8926 48.8994 18.2303C49.0006 17.9266 49.1337 17.5246 49.3159 17.1659C50.9876 13.9005 54.1286 13.5535 54.9702 13.5187L55.2392 13.7877L53.4778 15.0777C53.232 15.257 53.1857 15.5925 53.3535 15.8297C53.4547 15.9743 53.6225 16.0553 53.7902 16.0553C53.903 16.0553 54.0158 16.0206 54.1055 15.954L56.0028 14.5629L56.2371 14.7971L54.9818 17.6807C54.8575 17.9497 54.9818 18.2765 55.2624 18.398C55.3289 18.4327 55.407 18.4443 55.4764 18.4443C55.6904 18.4443 55.8813 18.3199 55.971 18.1203L57.0585 15.6301L57.2378 15.8094C57.2031 16.651 56.8561 19.792 53.5907 21.4522C53.232 21.6431 52.8272 21.7761 52.5263 21.8687C51.8814 22.0769 50.2905 22.693 48.8994 24.0755Z" fill="white"/>
</svg>
