<svg width="64" height="64" viewBox="0 0 64 64" fill="none" xmlns="http://www.w3.org/2000/svg">
<path d="M36.8177 6.83983H36.8593C37.234 6.80862 37.606 6.7904 37.9988 6.78C38.272 6.76959 38.4827 6.54845 38.4723 6.27529C38.4619 6.00211 38.2512 5.79139 37.9676 5.80179C37.5644 5.8122 37.1715 5.84342 36.7865 5.86163C36.5133 5.88244 36.313 6.11399 36.3312 6.38715C36.3546 6.64731 36.5654 6.83983 36.8177 6.83983Z" fill="white"/>
<path d="M41.2393 37.6868C41.2991 37.7076 41.3615 37.7181 41.411 37.7181C41.6035 37.7181 41.7934 37.5958 41.8662 37.4059C42.6545 35.3584 45.368 34.8537 49.9283 35.9125C50.1911 35.9724 50.4539 35.8111 50.5137 35.5483C50.5735 35.2855 50.4122 35.0228 50.1495 34.9629C45.0321 33.7818 41.9362 34.4894 40.9478 37.0624C40.8646 37.3044 40.9869 37.588 41.2393 37.6868Z" fill="white"/>
<path d="M46.6966 42.2397C47.3131 42.2397 47.8777 42.5129 48.2602 42.9864C48.3616 43.1087 48.5021 43.1685 48.6426 43.1685C48.7545 43.1685 48.8533 43.1269 48.9444 43.0566C49.1551 42.8849 49.1863 42.5831 49.0146 42.3698C48.6816 41.9562 48.2576 41.6544 47.784 41.4723C48.4501 41.0976 49.1863 41.108 50.0344 41.4827C50.2764 41.5945 50.5704 41.4827 50.6796 41.2407C50.7915 40.9988 50.6796 40.7048 50.4377 40.5955C49.1551 40.0206 47.9844 40.1012 46.9672 40.8375C46.6654 41.0586 46.4234 41.2017 46.1892 41.311C44.6361 42.0186 43.1818 41.9666 41.7379 41.1497C41.5063 41.0196 41.202 41.1002 41.0719 41.3318C40.9418 41.5633 41.0224 41.8677 41.254 41.9978C42.1724 42.5129 43.1116 42.7757 44.069 42.7757C44.865 42.7757 45.6637 42.5936 46.4807 42.2398L46.6966 42.2397Z" fill="white"/>
<path d="M34.2863 37.0522C33.2977 34.4792 30.1992 33.7715 25.0847 34.9527C24.8219 35.0125 24.6606 35.2753 24.7205 35.5381C24.7803 35.8008 25.0431 35.9621 25.3058 35.9023C29.8769 34.8538 32.5907 35.3585 33.3679 37.3956C33.4382 37.5881 33.6307 37.7078 33.8232 37.7078C33.883 37.7078 33.9455 37.6974 33.9949 37.6766C34.2577 37.5881 34.3878 37.3045 34.2863 37.0522Z" fill="white"/>
<path d="M42.2773 54.5716C42.3085 54.4494 42.2877 54.3193 42.1966 54.197C41.299 52.9951 40.4197 52.2588 39.4415 51.8867C38.9576 51.7046 38.4425 51.715 37.969 51.918C37.7271 52.0298 37.4435 52.0298 37.2016 51.918C36.7385 51.715 36.213 51.6968 35.7291 51.8867C34.7405 52.2614 33.8715 52.9977 32.974 54.197C32.8439 54.3791 32.8517 54.6601 33.0156 54.8318C34.5402 56.4058 36.0933 57.2045 37.6361 57.2045H37.6855C39.2283 57.2045 40.6228 56.3355 41.7024 55.2975C41.8845 55.105 42.207 54.8526 42.2773 54.5716ZM36.0724 52.7843C36.3144 52.6933 36.5667 52.7037 36.7982 52.8051C37.2925 53.0263 37.8571 53.0263 38.3514 52.8051C38.5829 52.7037 38.8457 52.6933 39.0772 52.7843C39.6522 53.0055 40.2063 53.4009 40.7526 53.9863H34.3839C34.9432 53.4009 35.487 53.0054 36.0724 52.7843ZM37.6568 56.2158C36.6682 56.2158 35.638 55.8126 34.5999 54.9645H40.5733C39.6055 55.7918 38.6246 56.2054 37.6568 56.2158Z" fill="white"/>
<path d="M37.6147 50.3931C38.3223 50.3931 39.0274 50.1017 39.7038 49.506C39.9067 49.3238 39.9249 49.022 39.7532 48.8192C39.5711 48.6162 39.2693 48.598 39.0664 48.7697C38.0882 49.6283 37.149 49.6283 36.1188 48.7593C35.908 48.5876 35.6037 48.6188 35.432 48.8192C35.2603 49.0299 35.2915 49.3343 35.4918 49.506C36.1943 50.0991 36.9097 50.3931 37.6147 50.3931Z" fill="white"/>
<path d="M57.6572 56.6503L59.5147 54.7927L63.157 58.5156C63.3495 58.7081 63.6513 58.7185 63.8543 58.526C64.0468 58.3334 64.0468 58.0317 63.8647 57.8287L59.879 53.752L57.5167 51.3897L54.8032 42.3779C55.105 40.7336 55.3288 39.027 55.4589 37.2917C55.6097 37.5233 55.7606 37.747 55.9141 37.9785C55.935 38.0098 55.9558 38.028 55.974 38.0488C55.974 38.0592 55.9844 38.0592 55.9844 38.0696C56.026 38.1112 56.0754 38.1398 56.1249 38.1607C56.1353 38.1607 56.1353 38.1711 56.1457 38.1711H56.1665C56.2159 38.1919 56.268 38.2023 56.3174 38.2023C56.3668 38.2023 56.4084 38.1919 56.4579 38.1815C56.4787 38.1711 56.4891 38.1607 56.5073 38.1607C56.5281 38.1502 56.5567 38.1398 56.5775 38.1294C56.627 38.0982 56.6686 38.0592 56.6998 38.0072C56.7102 37.9968 56.7206 37.9759 56.731 37.9577C56.7415 37.9369 56.7623 37.9161 56.7727 37.8875C61.9499 24.476 59.8712 14.9593 50.6069 9.61324C48.3252 2.27644 43.5538 -0.96238 36.7818 0.247765C30.9099 1.2962 27.2052 4.36612 26.045 9.10907C17.0225 14.5282 14.1373 23.054 17.4074 34.4589C16.0338 33.9645 14.5508 33.6914 13.0186 33.6914C5.8436 33.6914 0 39.5346 0 46.71C0 51.4215 2.52359 55.5499 6.2777 57.829H0.91317C0.639998 57.829 0.429272 58.0502 0.429272 58.3129V60.735C0.429272 62.2986 1.70149 63.5708 3.26502 63.5708H22.7719C24.3355 63.5708 25.6076 62.2986 25.6076 60.735V58.3129C25.6076 58.0398 25.3865 57.829 25.1237 57.829H19.7644C21.6505 56.6791 23.2245 55.0636 24.325 53.1357C24.6685 53.833 25.0223 54.5094 25.4047 55.1441C28.675 60.5737 33.0845 63.5705 37.8172 63.5705C42.5496 63.5705 46.9596 60.5839 50.2297 55.1441C50.5211 54.6602 50.7942 54.1659 51.057 53.6508L54.2648 54.6186L56.6271 56.9809L63.1363 63.4303C63.2273 63.5213 63.3574 63.5708 63.4797 63.5708C63.602 63.5708 63.7321 63.5213 63.8231 63.4303C64.0156 63.2378 64.0156 62.9256 63.8231 62.733L57.6572 56.6503ZM56.0312 51.996L54.3974 48.9989C54.2673 48.7674 53.9733 48.6763 53.7313 48.8064C53.4998 48.9365 53.4087 49.2304 53.5388 49.4724L54.4884 51.2077L53.6403 50.7446C53.3984 50.6145 53.1044 50.703 52.9743 50.9371C52.8442 51.1791 52.9327 51.4731 53.1668 51.6031L55.2663 52.7426L54.3687 53.6402L48.091 51.7436C48.5151 50.7342 49.0198 49.8054 49.6338 48.9989C49.7951 48.7882 49.756 48.4734 49.5323 48.3121C49.3216 48.1508 49.0068 48.1898 48.8455 48.4136C48.1691 49.3111 47.5941 50.3413 47.1389 51.46L47.0894 51.4392L45.8693 51.075C47.1909 46.967 49.8341 44.3236 53.942 43.0023L56.5047 51.4992L56.0312 51.996ZM56.1821 36.6597C52.5398 31.1807 48.13 26.8726 42.7392 23.5499C46.3009 22.5613 48.6917 20.9977 50.0241 18.7864C51.2651 16.7285 51.5591 14.1659 50.9112 10.976C58.9267 16.0518 60.6543 24.4681 56.1821 36.6588L56.1821 36.6597ZM26.7263 9.86798L26.7367 9.85757C26.7471 9.85757 26.7471 9.85757 26.7575 9.84717C26.7887 9.82635 29.8456 7.75809 35.1839 7.02181C35.4571 6.98018 35.6392 6.73823 35.5976 6.46767C35.5559 6.19449 35.314 6.01239 35.0434 6.05401C31.2893 6.56913 28.646 7.69826 27.2724 8.41629C28.5732 4.57113 31.8122 2.14898 36.9502 1.23068C37.827 1.06938 38.6647 0.999134 39.4738 0.999134C44.4585 0.999134 47.9002 4.04561 49.7271 10.0915C50.6142 13.5439 50.4425 16.2157 49.2016 18.2868C47.9112 20.4358 45.4474 21.9187 41.6829 22.8266C41.5711 22.837 41.4722 22.8579 41.3603 22.8683C41.3499 22.8683 41.3291 22.8683 41.3187 22.8787C32.9935 23.9089 25.8186 28.238 19.9464 35.7361C19.5015 35.4525 19.0488 35.2001 18.5649 34.979C15.0007 23.449 17.6753 15.2141 26.7263 9.86798ZM24.619 60.7554C24.619 61.7752 23.7916 62.6129 22.7614 62.6129H3.25454C2.23474 62.6129 1.39696 61.7856 1.39696 60.7554V58.8276H24.6162L24.619 60.7554ZM17.5945 57.8493H8.43153C4.06082 56.0438 0.975511 51.7433 0.975511 46.7303C0.975511 40.0909 6.37388 34.6927 13.013 34.6927C19.6522 34.6927 25.0505 40.0911 25.0505 46.7303C25.0505 51.7357 21.9624 56.0438 17.5945 57.8493ZM37.8067 62.6129C32.5905 62.6129 27.957 58.557 24.8794 52.0686C25.6157 50.4348 26.0293 48.6266 26.0293 46.7301C26.0293 44.8829 25.6365 43.1164 24.9393 41.5242C25.0303 41.5346 25.111 41.5346 25.202 41.493C26.0501 41.1106 26.7864 41.1106 27.4524 41.4826C26.9789 41.6751 26.5548 41.9769 26.2218 42.3802C26.0501 42.5909 26.0813 42.8953 26.2921 43.067C26.3831 43.1372 26.495 43.1789 26.5938 43.1789C26.7343 43.1789 26.8774 43.119 26.9763 42.9967C27.3587 42.5232 27.9337 42.2501 28.5399 42.2501H28.7428C29.5493 42.6039 30.3584 42.786 31.1545 42.786C32.1119 42.786 33.0511 42.5233 33.9695 42.0081C34.201 41.878 34.2921 41.5736 34.1516 41.3421C34.0215 41.1106 33.7171 41.0195 33.4856 41.16C32.0417 41.9665 30.59 42.0289 29.0342 41.3213C28.8027 41.2094 28.5607 41.0689 28.2563 40.8478C27.2365 40.1115 26.0657 40.0309 24.7858 40.6058C24.6947 40.6475 24.6245 40.7177 24.5751 40.7984C23.6567 39.011 22.3351 37.4579 20.7299 36.2767C26.4118 29.0418 33.3349 24.8739 41.335 23.8543C46.5928 26.9424 50.9322 30.928 54.5434 36.0143C54.4211 38.1034 54.1791 40.1118 53.8357 42.0397C49.1944 43.4836 46.1453 46.5899 44.7846 51.2939C44.7144 51.5567 44.8549 51.8194 45.1176 51.9001L50.0633 53.3934C47.0012 59.091 42.6619 62.6137 37.8073 62.6137L37.8067 62.6129ZM56.4344 52.9763L57.0692 52.3415L58.8253 54.0976L56.9677 55.9552L55.2038 54.2069L56.4344 52.9763Z" fill="white"/>
<path d="M51.7026 46.2851C51.5309 46.0744 51.2291 46.0431 51.0158 46.2044C50.6125 46.5271 50.2275 46.8705 49.8659 47.2451C49.6733 47.4376 49.6837 47.7498 49.8763 47.9423C49.9673 48.0334 50.0974 48.0828 50.2197 48.0828C50.3497 48.0828 50.472 48.0334 50.5735 47.9319C50.9065 47.5989 51.2603 47.2763 51.6323 46.9745C51.8352 46.8106 51.8743 46.4985 51.7026 46.2851Z" fill="white"/>
<path d="M52.3882 50.0707L51.9537 49.8392C51.7118 49.7091 51.4178 49.7975 51.2877 50.0317C51.1576 50.2736 51.2461 50.5676 51.4802 50.6977L51.9147 50.9292C51.9849 50.9709 52.0656 50.9891 52.1462 50.9891C52.3179 50.9891 52.4896 50.898 52.5807 50.7367C52.7108 50.4948 52.6197 50.2008 52.3882 50.0707Z" fill="white"/>
<path d="M13.0127 37.8587C8.12946 37.8587 4.15137 41.834 4.15137 46.72C4.15137 51.6032 8.12666 55.5813 13.0127 55.5813C17.8959 55.5813 21.874 51.606 21.874 46.72C21.874 41.8368 17.8961 37.8587 13.0127 37.8587ZM13.0127 54.6103C8.66281 54.6103 5.1324 51.0773 5.1324 46.73C5.1324 42.3801 8.6654 38.8497 13.0127 38.8497C17.3625 38.8497 20.8929 42.3827 20.8929 46.73C20.8929 51.0695 17.3625 54.6103 13.0127 54.6103Z" fill="white"/>
<path d="M11.924 44.7426L13.7503 42.9163C13.9428 42.7238 13.9428 42.4116 13.7503 42.219C13.6593 42.128 13.5292 42.0786 13.4069 42.0786C13.2846 42.0786 13.1546 42.128 13.0635 42.219L11.2372 44.0454C11.0446 44.2379 11.0446 44.5501 11.2372 44.7426C11.4297 44.9326 11.7315 44.9326 11.924 44.7426Z" fill="white"/>
<path d="M11.1281 48.8192L16.6591 43.2882C16.8516 43.0957 16.8516 42.7835 16.6591 42.591C16.5681 42.4999 16.438 42.4505 16.3157 42.4505C16.1934 42.4505 16.0634 42.4999 15.9723 42.591L10.4413 48.122C10.2487 48.3145 10.2487 48.6267 10.4413 48.8192C10.6338 49.0092 10.9356 49.0092 11.1281 48.8192Z" fill="white"/>
<path d="M9.01774 50.9266L9.85545 50.0889C10.048 49.8964 10.048 49.5842 9.85545 49.3916C9.76439 49.3006 9.63431 49.2511 9.51204 49.2511C9.38977 49.2511 9.25968 49.3006 9.16862 49.3916L8.33091 50.2293C8.13839 50.4218 8.13839 50.734 8.33091 50.9266C8.52343 51.1191 8.82525 51.1191 9.01774 50.9266Z" fill="white"/>
<path d="M19.0488 10.4323C19.1399 10.5234 19.2699 10.5728 19.3922 10.5728C19.5145 10.5728 19.6446 10.5234 19.7356 10.4323C19.9281 10.2398 19.9281 9.92759 19.7356 9.73505L16.8895 6.8993C16.697 6.70678 16.3848 6.70678 16.1922 6.8993C15.9997 7.09182 15.9997 7.40401 16.1922 7.59655L19.0488 10.4323Z" fill="white"/>
<path d="M13.9624 12.5602H17.4044C17.6776 12.5602 17.8883 12.3391 17.8883 12.0763C17.8883 11.8032 17.6672 11.5924 17.4044 11.5924H13.9624C13.6893 11.5924 13.4785 11.8136 13.4785 12.0763C13.4759 12.3391 13.6893 12.5602 13.9624 12.5602Z" fill="white"/>
<path d="M21.3898 8.58545C21.663 8.58545 21.8737 8.36432 21.8737 8.10156L21.8763 4.64921C21.8763 4.37604 21.6552 4.16531 21.3924 4.16531C21.1192 4.16531 20.8955 4.37605 20.8955 4.64921V8.09117C20.8955 8.36434 21.1192 8.58545 21.3898 8.58545Z" fill="white"/>
<path d="M14.9001 6.28568C14.9911 6.37674 15.1212 6.42617 15.2435 6.42617C15.3658 6.42617 15.4958 6.37674 15.5869 6.28568C15.7794 6.09316 15.7794 5.78097 15.5869 5.58843L15.0614 5.06291C14.8688 4.87039 14.5567 4.87039 14.3641 5.06291C14.1716 5.25542 14.1716 5.56762 14.3641 5.76016L14.9001 6.28568Z" fill="white"/>
</svg>
