<svg width="68" height="64" viewBox="0 0 68 64" fill="none" xmlns="http://www.w3.org/2000/svg">
<path d="M39.1966 47.2202H40.7622C41.0695 47.2202 41.3065 46.9832 41.3065 46.6759C41.3065 46.3804 41.0695 46.1316 40.7622 46.1316H39.1966C38.8894 46.1316 38.6523 46.3687 38.6523 46.6759C38.6523 46.9832 38.8923 47.2202 39.1966 47.2202Z" fill="white"/>
<path d="M24.0793 49.798H23.9535C23.6462 49.798 23.4092 50.0351 23.4092 50.3423C23.4092 50.6379 23.6462 50.8866 23.9535 50.8866H24.0793C24.2608 50.8866 24.4071 51.033 24.4071 51.2144V51.4631C24.4071 51.7587 24.6441 52.0074 24.9514 52.0074C25.2587 52.0074 25.4957 51.7704 25.4957 51.4631V51.2144C25.4986 50.4213 24.8606 49.798 24.0793 49.798Z" fill="white"/>
<path d="M22.0564 51.5923H5.62145C5.31418 51.5923 5.07715 51.8293 5.07715 52.1366V59.4701C5.07715 59.7657 5.31419 60.0144 5.62145 60.0144H22.0564C22.3637 60.0144 22.6007 59.7774 22.6007 59.4701V52.1366C22.6036 51.8293 22.3637 51.5923 22.0564 51.5923ZM21.5121 58.9111H6.16642V52.6692H21.5121V58.9111Z" fill="white"/>
<path d="M60.5708 11.4421V7.44761H61.7853C62.0926 7.44761 62.3296 7.21057 62.3296 6.90331V2.64541C62.3296 1.18224 61.1386 0 59.6842 0H54.3026C52.8394 0 51.6571 1.19101 51.6571 2.64541V6.90331C51.6571 7.19887 51.8942 7.44761 52.2015 7.44761H53.4159V11.4421C49.5121 11.6704 46.4013 14.904 46.4013 18.8664V25.6878C45.7312 24.0988 44.7772 22.656 43.5745 21.465C42.041 19.9434 40.1916 18.6147 38.0817 17.491V14.8134H38.8864C39.9546 14.8134 40.8149 13.9501 40.8149 12.8849L40.8208 9.51371C40.8208 8.44556 39.9575 7.58523 38.8923 7.58523H36.4985L36.4956 5.00709H38.664C40.0365 5.00709 41.1602 3.88336 41.1602 2.51091C41.1602 1.1267 40.0365 0.0147284 38.664 0.0147284L25.0414 0.011802C24.0552 0.011802 23.0895 0.374678 22.3521 1.03312L19.5925 3.47372C18.5595 4.39263 18.4688 5.9699 19.3759 7.00291C19.8646 7.55893 20.5553 7.84279 21.2488 7.84279C21.84 7.84279 22.4281 7.63794 22.9051 7.21947L25.3896 5.01883H30.3264V7.60573H27.9326C26.8645 7.60573 26.0042 8.46898 26.0042 9.53421V12.8937C26.0042 13.9619 26.8674 14.8222 27.9326 14.8222H28.7374V17.4998C26.6275 18.6235 24.775 19.9521 23.2446 21.4739C20.7601 23.9379 19.329 27.4554 19.329 31.1454V40.817L2.30601 40.8199C1.99874 40.8199 1.7617 41.057 1.7617 41.3643V45.7216C1.7617 46.0172 1.99874 46.2659 2.30601 46.2659H2.83861V47.6267L2.65718 47.6296C1.194 47.6296 0 48.8206 0 50.2868V61.3428C0 62.806 1.19101 64 2.65718 64H42.7924C44.4487 64 45.9148 63.125 46.7547 61.8316C47.3458 63.1133 48.6393 64 50.1376 64H63.8389C65.8932 64 67.5613 62.3319 67.5613 60.2776V18.8666C67.573 14.9042 64.4746 11.6704 60.5708 11.4421ZM24.986 3.91835L22.1942 6.40284C21.9103 6.65158 21.5592 6.77742 21.1729 6.75401C20.7983 6.7306 20.4471 6.56087 20.1955 6.27701C19.6746 5.69758 19.7302 4.80207 20.3213 4.27826L23.0809 1.83767C23.6252 1.36067 24.3187 1.08851 25.0445 1.08851L38.6754 1.09144C39.4596 1.09144 40.0829 1.72647 40.0829 2.49903C40.0829 3.28332 39.4479 3.90661 38.6754 3.90661H24.9861L24.986 3.91835ZM35.4187 5.00694V7.59385H31.4359L31.433 5.00694H35.4187ZM52.7519 2.64538C52.7519 1.78213 53.4543 1.09149 54.3058 1.09149H59.6874C60.5507 1.09149 61.2413 1.79382 61.2413 2.64538V6.35602H53.9781L52.7519 6.35895V2.64538ZM59.4826 7.44761V11.4217H54.5224V7.44761H59.4826ZM53.864 12.5102H60.141C63.6498 12.5102 66.4972 15.3606 66.4972 18.8664V26.3023H47.5076V18.8664C47.5076 15.3606 50.3552 12.5102 53.864 12.5102ZM66.4857 42.7049H47.5081V27.3915H66.4857V42.7049ZM46.4166 41.3061H37.45C37.1427 41.3061 36.9057 41.5431 36.9057 41.8504C36.9057 42.146 37.1427 42.3947 37.45 42.3947H46.4166V46.1288H42.8084C42.5011 46.1288 42.2641 46.3658 42.2641 46.6731C42.2641 46.9687 42.5011 47.2174 42.8084 47.2174H46.4166V54.9457H32.794V35.5351H46.4166V41.3061ZM27.1087 12.8847V9.51348C27.1087 9.04819 27.4832 8.6736 27.9485 8.6736H38.9019C39.3672 8.6736 39.7418 9.04818 39.7418 9.51348V12.873C39.7418 13.3383 39.3672 13.7129 38.9019 13.7129H27.9455C27.4832 13.7246 27.1087 13.35 27.1087 12.8847ZM2.85179 41.8852H24.838V45.154H2.85179V41.8852ZM3.93162 46.2572H23.761V47.6179H3.93162V46.2572ZM2.65866 62.8847C1.79541 62.8847 1.09308 62.1823 1.09308 61.3191V50.2631C1.09308 49.3998 1.79541 48.6975 2.65866 48.6975H25.0307C25.8939 48.6975 26.5962 49.3998 26.5962 50.2631V61.3191C26.5962 62.1823 25.8939 62.8847 25.0307 62.8847H2.65866ZM42.8088 62.8847H27.1553C27.4742 62.4428 27.6762 61.9072 27.6762 61.3191V50.2631C27.6762 48.7999 26.4851 47.6059 25.019 47.6059H24.8375V46.2451H25.3701C25.6774 46.2451 25.9144 46.0081 25.9144 45.7008V41.3434C25.9144 41.0479 25.6774 40.7991 25.3701 40.7991H20.4216V31.1275C20.4216 27.733 21.7268 24.4876 24.0094 22.2403C25.5428 20.7303 27.3923 19.4017 29.5373 18.3014C29.7188 18.2107 29.8329 18.0176 29.8329 17.8127V14.8044H36.9967V17.8127C36.9967 18.0176 37.1108 18.199 37.2922 18.3014C39.4256 19.4018 41.2867 20.7303 42.8202 22.2403C45.1028 24.4995 46.4079 27.7331 46.4079 31.1275V34.4519H32.2504C31.9431 34.4519 31.7061 34.689 31.7061 34.9962V55.4953C31.7061 55.7909 31.9432 56.0396 32.2504 56.0396H46.4169V59.2645C46.4169 61.2604 44.7958 62.8847 42.8088 62.8847ZM63.8526 62.8847H50.1393C48.6878 62.8847 47.4939 61.7053 47.4939 60.2392V59.2618L47.4968 43.7933H66.4864V60.2515C66.4864 61.7059 65.307 62.8847 63.8526 62.8847Z" fill="white"/>
<path d="M55.5668 34.985L57.0535 35.3947L55.283 37.6626C55.1015 37.8997 55.1455 38.2421 55.3737 38.4235C55.4761 38.5025 55.5903 38.5376 55.7015 38.5376C55.8595 38.5376 56.0204 38.4703 56.1316 38.3211L58.4025 35.4035C58.5166 35.2572 58.5488 35.0757 58.4932 34.8914C58.4376 34.7216 58.3001 34.5841 58.1186 34.5402L56.6759 34.1422L58.6951 31.7806C58.8882 31.5524 58.8648 31.2129 58.6395 31.0081C58.4112 30.815 58.0718 30.8384 57.867 31.0637L55.2917 34.072C55.1659 34.2096 55.1337 34.4115 55.1893 34.5841C55.2478 34.7919 55.3942 34.9294 55.5668 34.985Z" fill="white"/>
</svg>
