<svg width="118" height="118" viewBox="0 0 118 118" fill="none" xmlns="http://www.w3.org/2000/svg">
<path d="M33.5566 3.5813C37.2866 1.9802 40.9433 0.626648 45.0319 0C44.758 1.09414 44.0153 1.08968 43.4555 1.27462C34.0476 4.38318 25.9816 9.65268 19.3019 17.1169C10.8026 26.6145 5.64999 37.7612 3.95273 50.5374C0.249492 78.4137 17.0089 101.856 39.1057 110.67C53.1809 116.284 67.1772 115.495 80.8924 109.356C93.7301 103.609 103.315 94.2464 109.403 81.2532C113.778 71.9127 115.176 62.0338 114.145 51.7697C113.1 41.3559 109.924 31.7058 104.123 23.0383C101.621 19.2995 98.8153 15.8174 95.457 12.8304C94.7913 12.2383 93.9989 11.7385 93.5592 10.7395C94.3621 10.3413 94.807 10.9204 95.2843 11.2841C105.703 19.2233 112.776 29.5923 115.959 42.4799C120.691 61.6347 117.209 79.2474 105.369 94.8928C95.6033 107.798 82.5887 115.351 66.8621 117.419C46.9866 120.033 29.8413 113.812 15.8652 99.0406C8.87875 91.6563 4.25135 82.8166 1.88077 72.759C-1.79513 57.1634 -0.131086 42.2396 7.29929 28.1077C13.2108 16.8646 22.0001 8.74077 33.5566 3.5813Z" fill="#0A090C"/>
<path d="M52.8994 69.4231C50.6221 67.3466 49.7421 64.8226 49.7596 61.8733C49.7926 56.2938 49.8307 50.7129 49.7334 45.135C49.7041 43.4546 49.8234 42.2626 51.788 42.5411C52.2026 42.0172 52.0149 41.5039 52.0153 41.0257C52.0228 32.7182 52.0156 24.4107 52.0215 16.1032C52.023 13.9564 53.9911 12.8402 55.8638 13.8907C56.6947 14.3569 56.4935 15.1622 56.4949 15.8695C56.5103 23.5571 56.5026 31.2446 56.5071 38.9322C56.5087 41.5678 56.617 41.6288 59.176 41.4001C62.4238 41.1098 65.6986 41.025 68.7747 39.7056C69.8012 39.2654 70.254 39.7531 70.2735 40.8031C70.2827 41.2971 70.2751 41.7915 70.2751 42.4248C71.9065 42.5178 72.0926 43.6409 72.0837 45.0129C72.049 50.3444 72.1288 55.6772 72.0502 61.0076C71.9833 65.5477 70.4262 69.2492 66.0146 71.098C64.7166 71.642 63.3344 71.8536 61.9562 72.0089C61.0347 72.1128 60.5245 72.4771 60.4315 73.4679C60.2987 74.883 59.957 76.2899 59.9451 77.7024C59.891 84.1171 59.9214 90.5325 59.9214 97.3285C62.7852 89.9943 65.5167 82.9985 68.2486 76.0028C68.4957 75.3702 68.739 74.7359 68.994 74.1066C70.1235 71.3192 70.1231 71.3667 73.0904 71.4796C74.0305 71.5154 74.54 71.8759 74.8669 72.7208C78.1421 81.1846 81.4379 89.6401 84.6871 98.1144C84.9483 98.7955 85.8054 99.8132 84.4119 100.237C83.0608 100.648 82.6393 99.7621 82.4589 98.5298C82.0101 95.4638 81.2987 92.4654 80.1888 89.5636C79.7313 88.3674 79.1227 87.7741 77.7974 87.8151C75.2005 87.8954 72.598 87.8717 70.0001 87.801C68.7388 87.7667 68.0192 88.1969 67.5587 89.4636C66.4192 92.5974 65.1029 95.6634 63.9433 98.79C63.5071 99.966 62.8104 100.364 61.6255 100.392C56.0785 100.526 56.0799 100.551 53.0266 95.9757C48.7596 89.5827 44.4939 83.1888 40.2172 76.8027C39.9578 76.4153 39.8162 75.9003 39.1829 75.682C39.1517 76.0091 39.0947 76.2934 39.1019 76.576C39.2902 84.0003 38.5747 91.4517 39.7203 98.8467C39.8929 99.9606 39.3335 100.296 38.3907 100.307C37.4866 100.319 36.9959 99.9138 37.1578 98.9448C38.5569 90.5677 37.5497 82.1208 37.8613 73.7124C37.9403 71.5802 39.1257 70.7558 41.0545 71.5315C41.7285 71.8026 42.04 72.4162 42.4132 72.9747C47.2977 80.2841 52.18 87.5951 57.0678 94.9022C57.4327 95.4478 57.8359 95.9665 58.2015 96.4704C58.6092 96.3148 58.5661 96.0326 58.562 95.8046C58.4361 88.7448 58.9089 81.676 58.22 74.6234C58.0486 72.8689 57.7978 71.3632 55.6762 71.0225C54.6752 70.8617 53.8121 70.1675 52.8994 69.4231ZM66.7884 67.1468C67.3225 65.8598 67.3627 64.5013 67.3611 63.1316C67.3549 57.6793 67.3804 52.2268 67.3444 46.7747C67.3355 45.4366 67.6963 44.0884 67.3165 42.6756C62.9616 42.6756 58.6421 42.6756 54.2925 42.6756C54.2925 49.934 54.2611 57.049 54.3057 64.1636C54.328 67.7216 55.8073 69.7438 58.752 70.5311C62.2045 71.4542 64.8849 70.3975 66.7884 67.1468ZM71.6694 78.9289C70.8237 81.3871 69.5654 83.7039 68.9415 86.4159C72.3498 86.4159 75.4462 86.4159 78.895 86.4159C77.2218 82.0814 75.6463 78 73.9573 73.6247C72.8789 75.4313 72.3853 77.0748 71.6694 78.9289Z" fill="#0A090C"/>
</svg>
