<svg width="118" height="154" viewBox="0 0 118 154" fill="none" xmlns="http://www.w3.org/2000/svg">
<path d="M33.5566 3.5813C37.2866 1.9802 40.9433 0.626648 45.0319 0C44.758 1.09414 44.0153 1.08968 43.4555 1.27462C34.0476 4.38318 25.9816 9.65268 19.3019 17.1169C10.8026 26.6145 5.64999 37.7612 3.95273 50.5374C0.249492 78.4137 17.0089 101.856 39.1057 110.67C53.1809 116.284 67.1772 115.495 80.8924 109.356C93.7301 103.609 103.315 94.2464 109.403 81.2532C113.778 71.9127 115.176 62.0338 114.145 51.7697C113.1 41.3559 109.924 31.7058 104.123 23.0383C101.621 19.2995 98.8153 15.8174 95.457 12.8304C94.7913 12.2383 93.9989 11.7385 93.5592 10.7395C94.3621 10.3413 94.807 10.9204 95.2843 11.2841C105.703 19.2233 112.776 29.5923 115.959 42.4799C120.691 61.6347 117.209 79.2474 105.369 94.8928C95.6033 107.798 82.5887 115.351 66.8621 117.419C46.9866 120.033 29.8413 113.812 15.8652 99.0406C8.87875 91.6563 4.25135 82.8166 1.88077 72.759C-1.79513 57.1634 -0.131086 42.2396 7.29929 28.1077C13.2108 16.8646 22.0001 8.74077 33.5566 3.5813Z" fill="#0A090C"/>
<path d="M52.8994 69.4231C50.6221 67.3466 49.7421 64.8226 49.7596 61.8733C49.7926 56.2938 49.8307 50.7129 49.7334 45.135C49.7041 43.4546 49.8234 42.2626 51.788 42.5411C52.2026 42.0172 52.0149 41.5039 52.0153 41.0257C52.0228 32.7182 52.0156 24.4107 52.0215 16.1032C52.023 13.9564 53.9911 12.8402 55.8638 13.8907C56.6947 14.3569 56.4935 15.1622 56.4949 15.8695C56.5103 23.5571 56.5026 31.2446 56.5071 38.9322C56.5087 41.5678 56.617 41.6288 59.176 41.4001C62.4238 41.1098 65.6986 41.025 68.7747 39.7056C69.8012 39.2654 70.254 39.7531 70.2735 40.8031C70.2827 41.2971 70.2751 41.7915 70.2751 42.4248C71.9065 42.5178 72.0926 43.6409 72.0837 45.0129C72.049 50.3444 72.1288 55.6772 72.0502 61.0076C71.9833 65.5477 70.4262 69.2492 66.0146 71.098C64.7166 71.642 63.3344 71.8536 61.9562 72.0089C61.0347 72.1128 60.5245 72.4771 60.4315 73.4679C60.2987 74.883 59.957 76.2899 59.9451 77.7024C59.891 84.1171 59.9214 90.5325 59.9214 97.3285C62.7852 89.9943 65.5167 82.9985 68.2486 76.0028C68.4957 75.3702 68.739 74.7359 68.994 74.1066C70.1235 71.3192 70.1231 71.3667 73.0904 71.4796C74.0305 71.5154 74.54 71.8759 74.8669 72.7208C78.1421 81.1846 81.4379 89.6401 84.6871 98.1144C84.9483 98.7955 85.8054 99.8132 84.4119 100.237C83.0608 100.648 82.6393 99.7621 82.4589 98.5298C82.0101 95.4638 81.2987 92.4654 80.1888 89.5636C79.7313 88.3674 79.1227 87.7741 77.7974 87.8151C75.2005 87.8954 72.598 87.8717 70.0001 87.801C68.7388 87.7667 68.0192 88.1969 67.5587 89.4636C66.4192 92.5974 65.1029 95.6634 63.9433 98.79C63.5071 99.966 62.8104 100.364 61.6255 100.392C56.0785 100.526 56.0799 100.551 53.0266 95.9757C48.7596 89.5827 44.4939 83.1888 40.2172 76.8027C39.9578 76.4153 39.8162 75.9003 39.1829 75.682C39.1517 76.0091 39.0947 76.2934 39.1019 76.576C39.2902 84.0003 38.5747 91.4517 39.7203 98.8467C39.8929 99.9606 39.3335 100.296 38.3907 100.307C37.4866 100.319 36.9959 99.9138 37.1578 98.9448C38.5569 90.5677 37.5497 82.1208 37.8613 73.7124C37.9403 71.5802 39.1257 70.7558 41.0545 71.5315C41.7285 71.8026 42.04 72.4162 42.4132 72.9747C47.2977 80.2841 52.18 87.5951 57.0678 94.9022C57.4327 95.4478 57.8359 95.9665 58.2015 96.4704C58.6092 96.3148 58.5661 96.0326 58.562 95.8046C58.4361 88.7448 58.9089 81.676 58.22 74.6234C58.0486 72.8689 57.7978 71.3632 55.6762 71.0225C54.6752 70.8617 53.8121 70.1675 52.8994 69.4231ZM66.7884 67.1468C67.3225 65.8598 67.3627 64.5013 67.3611 63.1316C67.3549 57.6793 67.3804 52.2268 67.3444 46.7747C67.3355 45.4366 67.6963 44.0884 67.3165 42.6756C62.9616 42.6756 58.6421 42.6756 54.2925 42.6756C54.2925 49.934 54.2611 57.049 54.3057 64.1636C54.328 67.7216 55.8073 69.7438 58.752 70.5311C62.2045 71.4542 64.8849 70.3975 66.7884 67.1468ZM71.6694 78.9289C70.8237 81.3871 69.5654 83.7039 68.9415 86.4159C72.3498 86.4159 75.4462 86.4159 78.895 86.4159C77.2218 82.0814 75.6463 78 73.9573 73.6247C72.8789 75.4313 72.3853 77.0748 71.6694 78.9289Z" fill="#0A090C"/>
<path d="M6.60146 136.13C6.26779 136.13 5.97963 136.087 5.73696 136C5.49429 135.913 5.28846 135.798 5.11946 135.655C4.95046 135.508 4.81179 135.346 4.70346 135.168C4.59513 134.99 4.51063 134.808 4.44996 134.622L4.23546 136H2.85746L2.85746 126.341H4.76196V130.189C4.84429 130.046 4.95046 129.912 5.08046 129.786C5.21046 129.66 5.36213 129.55 5.53546 129.454C5.70879 129.359 5.89946 129.285 6.10746 129.233C6.31979 129.177 6.54513 129.149 6.78346 129.149C7.61979 129.149 8.27413 129.45 8.74646 130.052C9.22313 130.655 9.46146 131.504 9.46146 132.6C9.46146 133.311 9.35313 133.931 9.13646 134.459C8.91979 134.988 8.59913 135.4 8.17446 135.694C7.74979 135.985 7.22546 136.13 6.60146 136.13ZM6.18546 134.765C6.59279 134.765 6.93079 134.598 7.19946 134.264C7.47246 133.926 7.60896 133.363 7.60896 132.574C7.60896 131.877 7.47896 131.361 7.21896 131.027C6.96329 130.694 6.61446 130.527 6.17246 130.527C5.85613 130.527 5.59396 130.603 5.38596 130.754C5.17796 130.902 5.02196 131.127 4.91796 131.43C4.81829 131.734 4.76629 132.115 4.76196 132.574C4.76196 133.367 4.87896 133.931 5.11296 134.264C5.35129 134.598 5.70879 134.765 6.18546 134.765ZM16.1941 136.13C15.5268 136.13 14.9396 135.991 14.4326 135.714C13.93 135.432 13.5378 135.036 13.2561 134.524C12.9745 134.013 12.8336 133.411 12.8336 132.718C12.8336 132.046 12.9615 131.441 13.2171 130.904C13.4771 130.362 13.8498 129.935 14.3351 129.623C14.8205 129.307 15.4076 129.149 16.0966 129.149C16.7813 129.149 17.3555 129.294 17.8191 129.584C18.2828 129.87 18.6338 130.271 18.8721 130.787C19.1105 131.298 19.2296 131.89 19.2296 132.561V133.075H14.7121C14.7121 133.417 14.7685 133.716 14.8811 133.972C14.9938 134.223 15.1563 134.418 15.3686 134.557C15.5853 134.691 15.8453 134.758 16.1486 134.758C16.4736 134.758 16.7575 134.689 17.0001 134.55C17.2428 134.412 17.414 134.184 17.5136 133.868H19.2231C19.1451 134.345 18.9545 134.752 18.6511 135.09C18.3478 135.428 17.9795 135.686 17.5461 135.863C17.1128 136.041 16.6621 136.13 16.1941 136.13ZM14.7121 131.944H17.4551C17.4551 131.675 17.4031 131.428 17.2991 131.203C17.1995 130.978 17.0478 130.8 16.8441 130.67C16.6448 130.54 16.3935 130.475 16.0901 130.475C15.7998 130.475 15.5506 130.546 15.3426 130.689C15.139 130.828 14.9808 131.01 14.8681 131.235C14.7598 131.461 14.7078 131.697 14.7121 131.944ZM24.8943 136.13C24.4696 136.13 24.084 136.05 23.7373 135.889C23.395 135.729 23.1241 135.497 22.9248 135.194C22.7255 134.886 22.6258 134.514 22.6258 134.076C22.6258 133.339 22.901 132.78 23.4513 132.399C24.0016 132.013 24.8705 131.814 26.0578 131.801L26.9028 131.788V131.385C26.9028 131.077 26.8118 130.841 26.6298 130.676C26.4521 130.507 26.1726 130.425 25.7913 130.429C25.5183 130.434 25.2561 130.499 25.0048 130.624C24.7578 130.75 24.5866 130.969 24.4913 131.281H22.9118C22.9378 130.796 23.0786 130.397 23.3343 130.085C23.5943 129.769 23.9431 129.535 24.3808 129.383C24.8185 129.227 25.319 129.149 25.8823 129.149C26.567 129.149 27.1173 129.236 27.5333 129.409C27.9493 129.578 28.2505 129.823 28.4368 130.143C28.6275 130.46 28.7228 130.837 28.7228 131.274V136H27.1368L26.9808 134.843C26.7511 135.328 26.463 135.664 26.1163 135.85C25.774 136.037 25.3666 136.13 24.8943 136.13ZM25.5378 134.882C25.7068 134.882 25.8715 134.852 26.0318 134.791C26.1965 134.726 26.3438 134.641 26.4738 134.537C26.6038 134.429 26.7056 134.308 26.7793 134.173C26.8573 134.039 26.8985 133.9 26.9028 133.757V132.763L26.2203 132.776C25.904 132.78 25.6093 132.819 25.3363 132.893C25.0633 132.962 24.8423 133.077 24.6733 133.237C24.5086 133.398 24.4263 133.614 24.4263 133.887C24.4263 134.199 24.5325 134.444 24.7448 134.622C24.9615 134.795 25.2258 134.882 25.5378 134.882ZM35.0786 136.13C34.7666 136.13 34.4589 136.082 34.1556 135.987C33.8566 135.892 33.5836 135.751 33.3366 135.564C33.0896 135.378 32.8902 135.148 32.7386 134.875C32.5912 134.602 32.5176 134.286 32.5176 133.926V129.279H34.4156V133.686C34.4156 133.998 34.5174 134.254 34.7211 134.453C34.9247 134.652 35.2237 134.752 35.6181 134.752C35.9907 134.752 36.2854 134.657 36.5021 134.466C36.7231 134.271 36.8336 134 36.8336 133.653V129.279H38.7121V136H37.2821L37.0611 134.667C36.9831 135.062 36.8357 135.365 36.6191 135.577C36.4067 135.785 36.1619 135.928 35.8846 136.007C35.6116 136.089 35.3429 136.13 35.0786 136.13ZM45.5725 136.072C44.9788 136.072 44.5195 135.996 44.1945 135.844C43.8738 135.692 43.6507 135.48 43.525 135.207C43.4037 134.934 43.343 134.618 43.343 134.258V130.598H42.251V129.279H43.4015L43.8825 127.251H45.2345V129.272H46.7295V130.598H45.2345L45.2475 134.18C45.2475 134.345 45.267 134.468 45.306 134.55C45.3493 134.628 45.4143 134.68 45.501 134.706C45.592 134.728 45.7068 134.739 45.8455 134.739H46.749V135.909C46.658 135.948 46.5215 135.985 46.3395 136.02C46.1575 136.054 45.9018 136.072 45.5725 136.072ZM51.4747 138.145C51.0154 138.145 50.6904 138.106 50.4997 138.028C50.3091 137.954 50.2137 137.918 50.2137 137.918V136.709L50.8832 136.735C51.1736 136.752 51.4076 136.737 51.5852 136.689C51.7629 136.646 51.8972 136.587 51.9882 136.514C52.0792 136.44 52.1442 136.362 52.1832 136.28C52.2266 136.202 52.2569 136.139 52.2742 136.091L52.3977 135.72L49.7847 129.279H51.6632L53.2752 133.66L54.9002 129.279H56.7592L54.0357 136.039C53.8017 136.611 53.5526 137.049 53.2882 137.352C53.0282 137.655 52.7466 137.863 52.4432 137.976C52.1442 138.089 51.8214 138.145 51.4747 138.145ZM67.9747 136.13C67.5067 136.13 67.056 136.054 66.6227 135.902C66.1937 135.746 65.8275 135.504 65.5242 135.174C65.2252 134.841 65.0367 134.41 64.9587 133.881H66.5967C66.6573 134.119 66.7613 134.308 66.9087 134.446C67.0603 134.585 67.2315 134.685 67.4222 134.745C67.6128 134.802 67.7948 134.83 67.9682 134.83C68.3322 134.83 68.6247 134.774 68.8457 134.661C69.071 134.544 69.1837 134.366 69.1837 134.128C69.1837 133.946 69.1165 133.801 68.9822 133.692C68.8522 133.584 68.6355 133.502 68.3322 133.445L67.1492 133.198C66.5555 133.073 66.0767 132.86 65.7127 132.561C65.353 132.258 65.171 131.829 65.1667 131.274C65.1623 130.871 65.2663 130.51 65.4787 130.189C65.6953 129.868 66.0138 129.615 66.4342 129.428C66.8588 129.242 67.3767 129.149 67.9877 129.149C68.8153 129.149 69.4762 129.331 69.9702 129.695C70.4685 130.059 70.722 130.572 70.7307 131.235H69.1447C69.097 130.975 68.967 130.776 68.7547 130.637C68.5467 130.494 68.2823 130.423 67.9617 130.423C67.6367 130.423 67.368 130.481 67.1557 130.598C66.9433 130.715 66.8372 130.893 66.8372 131.131C66.8372 131.309 66.9238 131.45 67.0972 131.554C67.2705 131.654 67.5392 131.74 67.9032 131.814L68.9952 132.061C69.3722 132.152 69.6777 132.278 69.9117 132.438C70.15 132.594 70.3342 132.765 70.4642 132.951C70.5942 133.138 70.683 133.326 70.7307 133.517C70.7827 133.703 70.8087 133.872 70.8087 134.024C70.8087 134.47 70.6895 134.852 70.4512 135.168C70.2128 135.48 69.8813 135.718 69.4567 135.883C69.032 136.048 68.538 136.13 67.9747 136.13ZM77.3397 136.072C76.7461 136.072 76.2867 135.996 75.9617 135.844C75.6411 135.692 75.4179 135.48 75.2922 135.207C75.1709 134.934 75.1102 134.618 75.1102 134.258V130.598H74.0182V129.279H75.1687L75.6497 127.251H77.0017V129.272H78.4967V130.598H77.0017L77.0147 134.18C77.0147 134.345 77.0342 134.468 77.0732 134.55C77.1166 134.628 77.1816 134.68 77.2682 134.706C77.3592 134.728 77.4741 134.739 77.6127 134.739H78.5162V135.909C78.4252 135.948 78.2887 135.985 78.1067 136.02C77.9247 136.054 77.6691 136.072 77.3397 136.072ZM84.602 136.13C84.29 136.13 83.9823 136.082 83.679 135.987C83.38 135.892 83.107 135.751 82.86 135.564C82.613 135.378 82.4136 135.148 82.262 134.875C82.1146 134.602 82.041 134.286 82.041 133.926V129.279H83.939V133.686C83.939 133.998 84.0408 134.254 84.2445 134.453C84.4481 134.652 84.7471 134.752 85.1415 134.752C85.5141 134.752 85.8088 134.657 86.0255 134.466C86.2465 134.271 86.357 134 86.357 133.653V129.279H88.2355V136H86.8055L86.5845 134.667C86.5065 135.062 86.3591 135.365 86.1425 135.577C85.9301 135.785 85.6853 135.928 85.408 136.007C85.135 136.089 84.8663 136.13 84.602 136.13ZM94.7384 136.13C93.8371 136.13 93.1351 135.82 92.6324 135.2C92.1297 134.576 91.8784 133.71 91.8784 132.6C91.8784 131.898 91.9802 131.29 92.1839 130.774C92.3876 130.258 92.6887 129.86 93.0874 129.578C93.4861 129.292 93.9736 129.149 94.5499 129.149C94.7926 129.149 95.0179 129.177 95.2259 129.233C95.4382 129.285 95.6311 129.359 95.8044 129.454C95.9777 129.55 96.1294 129.66 96.2594 129.786C96.3894 129.912 96.4956 130.046 96.5779 130.189V126.341H98.4824V136H97.1044L96.8899 134.622C96.8249 134.808 96.7382 134.99 96.6299 135.168C96.5259 135.346 96.3894 135.508 96.2204 135.655C96.0514 135.798 95.8434 135.913 95.5964 136C95.3537 136.087 95.0677 136.13 94.7384 136.13ZM95.1544 134.765C95.6311 134.765 95.9864 134.598 96.2204 134.264C96.4587 133.931 96.5779 133.367 96.5779 132.574C96.5736 132.115 96.5194 131.734 96.4154 131.43C96.3114 131.127 96.1554 130.902 95.9474 130.754C95.7437 130.603 95.4837 130.527 95.1674 130.527C94.7557 130.527 94.4134 130.685 94.1404 131.001C93.8674 131.313 93.7309 131.838 93.7309 132.574C93.7309 133.324 93.8587 133.877 94.1144 134.232C94.3701 134.587 94.7167 134.765 95.1544 134.765ZM102.504 136V129.279H104.317V136H102.504ZM102.484 128.317V126.607H104.33V128.317H102.484ZM111.222 136.13C110.563 136.13 109.989 135.989 109.499 135.707C109.014 135.426 108.637 135.027 108.368 134.511C108.104 133.996 107.972 133.385 107.972 132.678C107.972 131.972 108.104 131.355 108.368 130.826C108.637 130.297 109.014 129.886 109.499 129.591C109.989 129.296 110.565 129.149 111.228 129.149C111.891 129.149 112.465 129.294 112.951 129.584C113.436 129.87 113.811 130.278 114.075 130.806C114.339 131.335 114.472 131.959 114.472 132.678C114.472 133.354 114.342 133.952 114.082 134.472C113.826 134.988 113.455 135.393 112.97 135.688C112.489 135.983 111.906 136.13 111.222 136.13ZM111.228 134.719C111.562 134.719 111.83 134.622 112.034 134.427C112.238 134.232 112.385 133.976 112.476 133.66C112.567 133.339 112.613 132.99 112.613 132.613C112.613 132.258 112.571 131.922 112.489 131.606C112.407 131.29 112.264 131.034 112.06 130.839C111.856 130.644 111.579 130.546 111.228 130.546C110.894 130.546 110.624 130.64 110.416 130.826C110.212 131.008 110.062 131.257 109.967 131.573C109.872 131.885 109.824 132.232 109.824 132.613C109.824 132.964 109.867 133.302 109.954 133.627C110.041 133.948 110.186 134.21 110.39 134.414C110.593 134.618 110.873 134.719 111.228 134.719ZM30.8768 151L30.8768 141.601H32.7878V149.394H36.8698V151H30.8768ZM43.2838 151.13C42.6251 151.13 42.051 150.989 41.5613 150.707C41.076 150.426 40.699 150.027 40.4303 149.511C40.166 148.996 40.0338 148.385 40.0338 147.678C40.0338 146.972 40.166 146.355 40.4303 145.826C40.699 145.297 41.076 144.886 41.5613 144.591C42.051 144.296 42.6273 144.149 43.2903 144.149C43.9533 144.149 44.5275 144.294 45.0128 144.584C45.4981 144.87 45.873 145.278 46.1373 145.806C46.4016 146.335 46.5338 146.959 46.5338 147.678C46.5338 148.354 46.4038 148.952 46.1438 149.472C45.8881 149.988 45.5176 150.393 45.0323 150.688C44.5513 150.983 43.9685 151.13 43.2838 151.13ZM43.2903 149.719C43.624 149.719 43.8926 149.622 44.0963 149.427C44.3 149.232 44.4473 148.976 44.5383 148.66C44.6293 148.339 44.6748 147.99 44.6748 147.613C44.6748 147.258 44.6336 146.922 44.5513 146.606C44.469 146.29 44.326 146.034 44.1223 145.839C43.9186 145.644 43.6413 145.546 43.2903 145.546C42.9566 145.546 42.6858 145.64 42.4778 145.826C42.2741 146.008 42.1246 146.257 42.0293 146.573C41.934 146.885 41.8863 147.232 41.8863 147.613C41.8863 147.964 41.9296 148.302 42.0163 148.627C42.103 148.948 42.2481 149.21 42.4518 149.414C42.6555 149.618 42.935 149.719 43.2903 149.719ZM50.1698 151V144.279H52.0353V145.228C52.1393 145.063 52.2737 144.905 52.4383 144.753C52.6073 144.597 52.8197 144.47 53.0753 144.37C53.331 144.27 53.6343 144.22 53.9853 144.22C54.397 144.22 54.7805 144.301 55.1358 144.461C55.4955 144.621 55.7858 144.875 56.0068 145.221C56.2278 145.564 56.3383 146.012 56.3383 146.567V151H54.4403V146.801C54.4403 146.437 54.332 146.164 54.1153 145.982C53.8987 145.8 53.6343 145.709 53.3223 145.709C53.1143 145.709 52.9128 145.746 52.7178 145.819C52.5272 145.893 52.3712 146.004 52.2498 146.151C52.1285 146.298 52.0678 146.48 52.0678 146.697V151H50.1698ZM62.7574 151.13C61.8561 151.13 61.1541 150.82 60.6514 150.2C60.1487 149.576 59.8974 148.71 59.8974 147.6C59.8974 146.898 59.9992 146.29 60.2029 145.774C60.4066 145.258 60.7077 144.86 61.1064 144.578C61.5051 144.292 61.9926 144.149 62.5689 144.149C62.8116 144.149 63.0369 144.177 63.2449 144.233C63.4572 144.285 63.6501 144.359 63.8234 144.454C63.9967 144.55 64.1484 144.66 64.2784 144.786C64.4084 144.912 64.5146 145.046 64.5969 145.189V141.341H66.5014V151H65.1234L64.9089 149.622C64.8439 149.808 64.7572 149.99 64.6489 150.168C64.5449 150.346 64.4084 150.508 64.2394 150.655C64.0704 150.798 63.8624 150.913 63.6154 151C63.3727 151.087 63.0867 151.13 62.7574 151.13ZM63.1734 149.765C63.6501 149.765 64.0054 149.598 64.2394 149.264C64.4777 148.931 64.5969 148.367 64.5969 147.574C64.5926 147.115 64.5384 146.734 64.4344 146.43C64.3304 146.127 64.1744 145.902 63.9664 145.754C63.7627 145.603 63.5027 145.527 63.1864 145.527C62.7747 145.527 62.4324 145.685 62.1594 146.001C61.8864 146.313 61.7499 146.838 61.7499 147.574C61.7499 148.324 61.8777 148.877 62.1334 149.232C62.3891 149.587 62.7357 149.765 63.1734 149.765ZM73.3966 151.13C72.7379 151.13 72.1637 150.989 71.6741 150.707C71.1887 150.426 70.8117 150.027 70.5431 149.511C70.2787 148.996 70.1466 148.385 70.1466 147.678C70.1466 146.972 70.2787 146.355 70.5431 145.826C70.8117 145.297 71.1887 144.886 71.6741 144.591C72.1637 144.296 72.7401 144.149 73.4031 144.149C74.0661 144.149 74.6402 144.294 75.1256 144.584C75.6109 144.87 75.9857 145.278 76.2501 145.806C76.5144 146.335 76.6466 146.959 76.6466 147.678C76.6466 148.354 76.5166 148.952 76.2566 149.472C76.0009 149.988 75.6304 150.393 75.1451 150.688C74.6641 150.983 74.0812 151.13 73.3966 151.13ZM73.4031 149.719C73.7367 149.719 74.0054 149.622 74.2091 149.427C74.4127 149.232 74.5601 148.976 74.6511 148.66C74.7421 148.339 74.7876 147.99 74.7876 147.613C74.7876 147.258 74.7464 146.922 74.6641 146.606C74.5817 146.29 74.4387 146.034 74.2351 145.839C74.0314 145.644 73.7541 145.546 73.4031 145.546C73.0694 145.546 72.7986 145.64 72.5906 145.826C72.3869 146.008 72.2374 146.257 72.1421 146.573C72.0467 146.885 71.9991 147.232 71.9991 147.613C71.9991 147.964 72.0424 148.302 72.1291 148.627C72.2157 148.948 72.3609 149.21 72.5646 149.414C72.7682 149.618 73.0477 149.719 73.4031 149.719ZM80.2826 151V144.279H82.1481V145.228C82.2521 145.063 82.3864 144.905 82.5511 144.753C82.7201 144.597 82.9324 144.47 83.1881 144.37C83.4438 144.27 83.7471 144.22 84.0981 144.22C84.5098 144.22 84.8933 144.301 85.2486 144.461C85.6083 144.621 85.8986 144.875 86.1196 145.221C86.3406 145.564 86.4511 146.012 86.4511 146.567V151H84.5531V146.801C84.5531 146.437 84.4448 146.164 84.2281 145.982C84.0114 145.8 83.7471 145.709 83.4351 145.709C83.2271 145.709 83.0256 145.746 82.8306 145.819C82.6399 145.893 82.4839 146.004 82.3626 146.151C82.2413 146.298 82.1806 146.48 82.1806 146.697V151H80.2826Z" fill="#0A090C"/>
</svg>
