<svg width="120" height="120" viewBox="0 0 120 120" fill="none" xmlns="http://www.w3.org/2000/svg">
<path d="M34.1254 3.64201C37.9186 2.01377 41.6373 0.637272 45.7952 0C45.5166 1.11269 44.7613 1.10815 44.192 1.29622C34.6246 4.45749 26.4219 9.81632 19.6291 17.4071C10.9857 27.0657 5.74575 38.4014 4.01973 51.3942C0.253721 79.743 17.2972 103.582 39.7685 112.546C54.0823 118.255 68.3158 117.453 82.2634 111.21C95.3188 105.366 105.067 95.8442 111.257 82.6306C115.707 73.1319 117.128 63.0854 116.08 52.6474C115.017 42.057 111.787 32.2433 105.888 23.4289C103.343 19.6267 100.49 16.0856 97.0749 13.0479C96.3979 12.4457 95.5921 11.9375 95.145 10.9216C95.9614 10.5167 96.4139 11.1055 96.8993 11.4754C107.495 19.5492 114.687 30.094 117.925 43.2001C122.736 62.6796 119.196 80.5908 107.155 96.5015C97.2237 109.625 83.9885 117.306 67.9954 119.41C47.783 122.068 30.3471 115.742 16.1341 100.72C9.02923 93.2102 4.32341 84.2206 1.91265 73.9925C-1.82556 58.1325 -0.133308 42.9557 7.423 28.5842C13.4347 17.1505 22.373 8.88895 34.1254 3.64201Z" fill="white"/>
<path d="M53.7966 70.5998C51.4807 68.4881 50.5858 65.9214 50.6036 62.922C50.6372 57.248 50.6759 51.5725 50.5769 45.9C50.5471 44.191 50.6685 42.9789 52.6664 43.2621C53.088 42.7293 52.8971 42.2073 52.8976 41.7211C52.9052 33.2727 52.8978 24.8243 52.9038 16.376C52.9053 14.1928 54.9068 13.0576 56.8112 14.126C57.6563 14.6001 57.4516 15.4191 57.453 16.1384C57.4687 23.9562 57.4608 31.7741 57.4655 39.592C57.4671 42.2723 57.5772 42.3343 60.1796 42.1017C63.4825 41.8066 66.8127 41.7202 69.9409 40.3786C70.9849 39.9308 71.4453 40.4268 71.4652 41.4946C71.4746 41.997 71.4668 42.4998 71.4668 43.1439C73.1259 43.2384 73.3151 44.3805 73.3061 45.7758C73.2707 51.1977 73.352 56.6208 73.272 62.0417C73.204 66.6587 71.6204 70.423 67.1341 72.3031C65.8141 72.8563 64.4085 73.0715 63.0069 73.2295C62.0698 73.3351 61.5509 73.7056 61.4564 74.7132C61.3213 76.1523 60.9738 77.583 60.9617 79.0195C60.9067 85.5429 60.9376 92.067 60.9376 98.9783C63.8499 91.5198 66.6278 84.4054 69.406 77.2911C69.6572 76.6477 69.9046 76.0027 70.164 75.3627C71.3126 72.5281 71.3122 72.5764 74.3298 72.6912C75.2858 72.7276 75.804 73.0942 76.1365 73.9534C79.4671 82.5607 82.8189 91.1596 86.1231 99.7775C86.3887 100.47 87.2603 101.505 85.8432 101.936C84.4692 102.354 84.0406 101.453 83.8571 100.2C83.4007 97.082 82.6772 94.0327 81.5485 91.0818C81.0833 89.8653 80.4644 89.262 79.1166 89.3036C76.4757 89.3853 73.8291 89.3611 71.1871 89.2893C69.9044 89.2544 69.1727 89.6919 68.7043 90.98C67.5455 94.167 66.207 97.2849 65.0277 100.465C64.5841 101.66 63.8756 102.065 62.6706 102.094C57.0296 102.23 57.0311 102.255 53.9259 97.6026C49.5867 91.1012 45.2486 84.5989 40.8994 78.1045C40.6357 77.7106 40.4916 77.1868 39.8476 76.9648C39.8159 77.2975 39.758 77.5866 39.7653 77.874C39.9568 85.4241 39.2291 93.0018 40.3941 100.522C40.5696 101.655 40.0008 101.996 39.042 102.008C38.1226 102.019 37.6236 101.607 37.7882 100.622C39.2111 92.1029 38.1867 83.5128 38.5036 74.9618C38.584 72.7934 39.7895 71.9552 41.751 72.744C42.4363 73.0196 42.7531 73.6436 43.1327 74.2116C48.1 81.6449 53.065 89.0799 58.0356 96.5108C58.4067 97.0657 58.8167 97.5931 59.1886 98.1057C59.6032 97.9474 59.5594 97.6604 59.5552 97.4285C59.4271 90.249 59.908 83.0604 59.2074 75.8883C59.0331 74.104 58.778 72.5728 56.6205 72.2263C55.6025 72.0628 54.7248 71.3568 53.7966 70.5998ZM67.9211 68.2849C68.4642 66.9761 68.505 65.5946 68.5034 64.2017C68.4971 58.6569 68.523 53.112 68.4864 47.5675C68.4774 46.2067 68.8443 44.8356 68.458 43.3989C64.0294 43.3989 59.6367 43.3989 55.2133 43.3989C55.2133 50.7804 55.1813 58.016 55.2268 65.2511C55.2495 68.8695 56.7538 70.9259 59.7484 71.7266C63.2594 72.6654 65.9853 71.5907 67.9211 68.2849ZM72.8848 80.2667C72.0247 82.7666 70.7451 85.1227 70.1106 87.8806C73.5767 87.8806 76.7256 87.8806 80.2328 87.8806C78.5312 83.4727 76.929 79.3221 75.2115 74.8727C74.1147 76.7099 73.6127 78.3812 72.8848 80.2667Z" fill="white"/>
</svg>
