<svg width="48" height="48" viewBox="0 0 48 48" fill="none" xmlns="http://www.w3.org/2000/svg">
<circle cx="24" cy="24" r="24" fill="#95A3A0"/>
<path d="M31.7435 13.54H30.6833L30.3803 14.6508C30.1279 15.6605 29.1434 16.4179 28.1336 16.4179C27.5782 16.4179 27.0481 16.1907 26.7452 15.7615C26.417 15.3324 26.316 14.7518 26.4675 14.1964L26.6442 13.54H23.2363L22.9333 14.6508C22.6557 15.6605 21.6964 16.4179 20.6614 16.4179C20.106 16.4179 19.6011 16.1907 19.2729 15.7615C18.9448 15.3324 18.8438 14.7518 18.9953 14.1964L19.172 13.54H18.0612C16.3699 13.54 14.6785 14.8527 14.2494 16.5441L11.1191 28.0806C10.8667 28.9894 11.0181 29.8982 11.5483 30.5545C12.0531 31.2109 12.8357 31.5895 13.7193 31.5895H15.2591V32.2711C15.2591 34.0635 16.7233 35.5276 18.5156 35.5276H31.7435C33.5358 35.5276 35 34.0635 35 32.2711V16.7965C35 15.0042 33.5358 13.54 31.7435 13.54ZM13.7445 29.6205C13.5425 29.6205 13.2901 29.57 13.1386 29.3681C12.9872 29.1914 12.9619 28.9137 13.0629 28.6107L15.6378 18.9675H31.3396L28.8909 28.1059C28.6637 28.9389 27.7802 29.6458 26.9724 29.6458H13.7445V29.6205ZM33.031 32.2711C33.031 32.978 32.4503 33.5586 31.7435 33.5586H18.5409C17.834 33.5586 17.2534 32.978 17.2534 32.2711V31.5895H26.9724C28.6637 31.5895 30.3551 30.2769 30.7842 28.5855L33.031 20.2297V32.2711Z" fill="white"/>
<path d="M20.6624 15.5089C21.2682 15.5089 21.8741 15.0293 22.0256 14.4234L22.379 13.0855C22.5304 12.4796 22.177 12 21.5964 12C20.9905 12 20.3847 12.4796 20.2332 13.0855L19.8798 14.4234C19.7283 15.004 20.0818 15.5089 20.6624 15.5089Z" fill="white"/>
<path d="M28.1328 15.5089C28.7387 15.5089 29.3445 15.0293 29.496 14.4234L29.8494 13.0855C30.0009 12.4796 29.6475 12 29.0669 12C28.461 12 27.8551 12.4796 27.7037 13.0855L27.325 14.4234C27.1736 15.004 27.527 15.5089 28.1328 15.5089Z" fill="white"/>
<path d="M23.0591 24.8996H20.7114C20.56 24.8996 20.3832 25.0258 20.3328 25.1773L19.8784 26.8939C19.8279 27.0453 19.9289 27.1716 20.0803 27.1716H22.428C22.5795 27.1716 22.7562 27.0453 22.8067 26.8939L23.2611 25.1773C23.3116 25.0258 23.2106 24.8996 23.0591 24.8996Z" fill="white"/>
<path d="M18.9204 24.8997H16.5727C16.4213 24.8997 16.2446 25.0259 16.1941 25.1773L15.7397 26.8939C15.6892 27.0454 15.7902 27.1716 15.9416 27.1716H18.2893C18.4408 27.1716 18.6175 27.0454 18.668 26.8939L19.1224 25.1773C19.1729 25.0259 19.0972 24.8997 18.9204 24.8997Z" fill="white"/>
<path d="M27.1988 24.8996H24.8511C24.6996 24.8996 24.5229 25.0258 24.4724 25.1773L24.018 26.8939C23.9675 27.0453 24.0685 27.1716 24.22 27.1716H26.5677C26.7191 27.1716 26.8958 27.0453 26.9463 26.8939L27.4007 25.1773C27.4512 25.0258 27.3502 24.8996 27.1988 24.8996Z" fill="white"/>
<path d="M24.0191 21.2898H21.6714C21.5199 21.2898 21.3432 21.416 21.2927 21.5675L20.8383 23.2841C20.7878 23.4355 20.8888 23.5618 21.0403 23.5618H23.388C23.5394 23.5618 23.7162 23.4355 23.7666 23.2841L24.221 21.5675C24.2715 21.416 24.1958 21.2898 24.0191 21.2898Z" fill="white"/>
<path d="M19.9038 21.2898H17.5561C17.4047 21.2898 17.228 21.416 17.1775 21.5675L16.7231 23.2841C16.6726 23.4355 16.7736 23.5618 16.925 23.5618H19.2727C19.4242 23.5618 19.6009 23.4355 19.6514 23.2841L20.1058 21.5675C20.1563 21.416 20.0553 21.2898 19.9038 21.2898Z" fill="white"/>
<path d="M25.2056 23.5872H27.5533C27.7048 23.5872 27.8815 23.4609 27.9319 23.3095L28.3863 21.5929C28.4368 21.4414 28.3359 21.3152 28.1844 21.3152H25.8367C25.6852 21.3152 25.5085 21.4414 25.458 21.5929L25.0036 23.3095C24.9531 23.4357 25.0289 23.5872 25.2056 23.5872Z" fill="white"/>
</svg>
