<svg width="229" height="229" viewBox="0 0 229 229" fill="none" xmlns="http://www.w3.org/2000/svg">
<path d="M85.3183 219.893L79.6614 225.55L77.6837 223.572C77.2897 223.178 77.0328 222.785 76.9131 222.393C76.7916 222.002 76.7823 221.63 76.8855 221.277C76.9867 220.925 77.1755 220.611 77.4517 220.335C77.6948 220.092 77.9388 219.934 78.1837 219.863C78.4267 219.789 78.6643 219.776 78.8963 219.824C79.1265 219.87 79.3447 219.952 79.5509 220.07L79.6062 220.015C79.4441 219.83 79.3309 219.596 79.2664 219.31C79.202 219.025 79.2139 218.72 79.3023 218.396C79.3907 218.072 79.5841 217.761 79.8824 217.462C80.166 217.179 80.4855 216.988 80.8408 216.891C81.1962 216.793 81.5793 216.817 81.9899 216.962C82.4005 217.108 82.8287 217.403 83.2743 217.849L85.3183 219.893ZM84.0256 219.816L82.6666 218.457C82.2192 218.009 81.815 217.778 81.454 217.763C81.0894 217.749 80.7828 217.866 80.5342 218.114C80.3427 218.306 80.2148 218.531 80.1503 218.791C80.084 219.052 80.0923 219.322 80.1752 219.6C80.2562 219.88 80.4201 220.143 80.6668 220.39L82.0589 221.782L84.0256 219.816ZM81.4623 222.379L80.1917 221.108C79.9855 220.902 79.759 220.757 79.5123 220.672C79.2637 220.585 79.0169 220.567 78.772 220.617C78.5253 220.665 78.3024 220.788 78.1036 220.987C77.855 221.235 77.7307 221.533 77.7307 221.879C77.7288 222.227 77.9157 222.589 78.2914 222.965L79.5841 224.257L81.4623 222.379Z" fill="black"/>
<path d="M74.9304 208.402L68.4582 213.105L65.6203 209.198L66.3156 208.693L68.5841 211.816L70.7709 210.227L68.6494 207.307L69.3447 206.802L71.4662 209.722L73.6657 208.124L71.3605 204.951L72.0557 204.446L74.9304 208.402Z" fill="black"/>
<path d="M66.8398 195.985L67.3008 196.89L58.8392 197.905L58.3852 197.014L64.1797 190.765L64.6407 191.67L59.7257 196.857L59.7541 196.913L66.8398 195.985ZM63.8851 197.07L62.0266 193.422L62.7923 193.032L64.6508 196.68L63.8851 197.07Z" fill="black"/>
<path d="M51.7386 180.57L51.4392 179.648L56.4769 178.012C56.997 177.843 57.5012 177.814 57.9895 177.927C58.4746 178.037 58.9067 178.276 59.2861 178.643C59.6629 179.011 59.9483 179.493 60.1423 180.09C60.3362 180.687 60.3888 181.245 60.3 181.764C60.2088 182.284 59.9999 182.732 59.6734 183.109C59.3436 183.485 58.9187 183.757 58.3986 183.926L53.3609 185.563L53.0616 184.641L58.0249 183.029C58.3964 182.908 58.7005 182.719 58.9372 182.461C59.1713 182.204 59.3223 181.898 59.3901 181.542C59.4546 181.184 59.418 180.794 59.2804 180.37C59.1428 179.946 58.9427 179.609 58.6803 179.357C58.4154 179.107 58.1131 178.948 57.7735 178.88C57.4306 178.811 57.0734 178.836 56.7019 178.957L51.7386 180.57Z" fill="black"/>
<path d="M49.8699 169.704L49.0211 169.838L48.0825 163.912L48.9313 163.777L49.3248 166.262L56.3775 165.145L56.529 166.102L49.4763 167.219L49.8699 169.704Z" fill="black"/>
<path d="M47.2036 153.94L47.2036 152.831L50.938 150.612L50.938 150.518L47.2036 148.299L47.2036 147.19L51.9067 150.081L55.2036 150.081L55.2036 151.049L51.9067 151.049L47.2036 153.94Z" fill="black"/>
<path d="M54.5868 117.578C54.1958 117.5 53.8448 117.586 53.5338 117.835C53.2227 118.085 52.9924 118.44 52.8427 118.901C52.7332 119.237 52.692 119.55 52.7189 119.838C52.7466 120.123 52.8328 120.368 52.9777 120.571C53.1233 120.772 53.3175 120.911 53.5602 120.99C53.7633 121.056 53.9536 121.065 54.1311 121.015C54.3069 120.963 54.4681 120.876 54.6146 120.754C54.7586 120.631 54.8889 120.495 55.0056 120.347C55.1197 120.198 55.2183 120.059 55.3013 119.929L55.7605 119.224C55.8768 119.043 56.0203 118.846 56.1908 118.633C56.3621 118.418 56.5632 118.224 56.7942 118.053C57.0234 117.878 57.2844 117.758 57.5771 117.691C57.8697 117.625 58.1944 117.649 58.551 117.765C58.9622 117.899 59.2987 118.127 59.5605 118.451C59.8232 118.771 59.9856 119.169 60.0477 119.644C60.1105 120.116 60.047 120.644 59.8571 121.229C59.6801 121.774 59.4388 122.217 59.1334 122.559C58.8288 122.898 58.4822 123.13 58.0937 123.256C57.7059 123.379 57.2991 123.388 56.8734 123.282L57.1824 122.331C57.4777 122.4 57.7469 122.381 57.9898 122.273C58.2311 122.163 58.4398 121.992 58.616 121.762C58.7904 121.529 58.9267 121.261 59.0249 120.959C59.1392 120.607 59.1848 120.273 59.1618 119.956C59.1364 119.638 59.0474 119.364 58.895 119.134C58.74 118.903 58.5239 118.742 58.2465 118.652C57.9938 118.57 57.7653 118.574 57.561 118.663C57.3566 118.753 57.1674 118.897 56.9935 119.095C56.8196 119.293 56.6521 119.514 56.4909 119.757L55.9192 120.607C55.5551 121.145 55.1583 121.537 54.7286 121.781C54.2989 122.024 53.8278 122.063 53.3151 121.896C52.8891 121.758 52.555 121.522 52.3128 121.189C52.069 120.852 51.9227 120.459 51.874 120.011C51.8236 119.559 51.8773 119.091 52.035 118.605C52.1944 118.115 52.4239 117.708 52.7237 117.383C53.021 117.058 53.3569 116.833 53.7315 116.709C54.1069 116.581 54.4886 116.574 54.8765 116.686L54.5868 117.578Z" fill="black"/>
<path d="M57.6755 106.714L56.9098 106.324L59.6338 100.978L60.3995 101.368L59.2574 103.609L65.6197 106.851L65.1799 107.714L58.8176 104.473L57.6755 106.714Z" fill="black"/>
<path d="M67.9808 87.9947L68.5502 87.211L72.8355 90.3244C73.2779 90.6459 73.5971 91.0372 73.7932 91.4983C73.9887 91.9558 74.0496 92.4458 73.9757 92.9684C73.8998 93.4894 73.6773 94.0037 73.3085 94.5115C72.9396 95.0192 72.5191 95.3897 72.0471 95.6229C71.5729 95.8547 71.0873 95.9493 70.5903 95.9068C70.0926 95.8607 69.6226 95.6769 69.1802 95.3555L64.8949 92.2421L65.4643 91.4583L69.6864 94.5258C70.0024 94.7555 70.3342 94.8903 70.6817 94.9303C71.0271 94.9688 71.3638 94.9108 71.6917 94.7564C72.019 94.5983 72.3135 94.3391 72.5753 93.9788C72.837 93.6185 72.9925 93.2583 73.0417 92.8982C73.0889 92.5365 73.04 92.1984 72.8951 91.8839C72.7496 91.5657 72.5189 91.2918 72.2028 91.0622L67.9808 87.9947Z" fill="black"/>
<path d="M82.7772 83.0902L81.0315 84.8358L75.3747 79.179L77.1977 77.356C77.7464 76.8072 78.3293 76.4509 78.9461 76.287C79.5612 76.1213 80.1836 76.1452 80.8133 76.3588C81.4413 76.5706 82.048 76.9693 82.6336 77.5548C83.2228 78.1441 83.6252 78.7564 83.8406 79.3917C84.0542 80.0251 84.0745 80.6567 83.9014 81.2865C83.7265 81.9144 83.3517 82.5156 82.7772 83.0902ZM81.1089 83.5432L82.1254 82.5267C82.5931 82.059 82.8905 81.5811 83.0175 81.0931C83.1446 80.6052 83.117 80.119 82.9347 79.6347C82.7524 79.1504 82.431 78.6781 81.9707 78.2178C81.514 77.7611 81.0463 77.4425 80.5675 77.2621C80.0869 77.0798 79.61 77.0485 79.1367 77.1682C78.6616 77.286 78.2031 77.5659 77.7612 78.0078L76.6674 79.1016L81.1089 83.5432Z" fill="black"/>
<path d="M90.2219 66.2306L94.9242 72.7027L94.1405 73.2722L89.4382 66.8L90.2219 66.2306Z" fill="black"/>
<path d="M108.4 60.1049C108.783 60.8567 108.978 61.5755 108.986 62.2614C108.993 62.9474 108.836 63.5594 108.514 64.0976C108.192 64.6358 107.727 65.0598 107.119 65.3695C106.511 65.6793 105.895 65.8062 105.27 65.7504C104.645 65.6946 104.058 65.462 103.507 65.0528C102.957 64.6435 102.49 64.063 102.107 63.3112C101.724 62.5594 101.529 61.8405 101.521 61.1546C101.513 60.4687 101.671 59.8566 101.993 59.3185C102.315 58.7803 102.78 58.3563 103.388 58.0465C103.996 57.7368 104.612 57.6098 105.237 57.6656C105.861 57.7215 106.449 57.954 106.999 58.3633C107.55 58.7726 108.017 59.3531 108.4 60.1049ZM107.564 60.5305C107.25 59.9133 106.881 59.445 106.458 59.1256C106.038 58.805 105.597 58.6249 105.135 58.5853C104.676 58.5446 104.231 58.6341 103.799 58.854C103.367 59.0739 103.032 59.3822 102.793 59.7788C102.556 60.1743 102.442 60.6369 102.452 61.1668C102.464 61.6954 102.628 62.2684 102.942 62.8856C103.257 63.5028 103.624 63.9717 104.045 64.2922C104.468 64.6116 104.909 64.7917 105.368 64.8325C105.829 64.8721 106.276 64.7819 106.707 64.562C107.139 64.3421 107.473 64.0345 107.71 63.639C107.949 63.2424 108.063 62.7797 108.051 62.2511C108.041 61.7212 107.879 61.1477 107.564 60.5305Z" fill="black"/>
<path d="M133.264 56.2926L132.013 48.3911L132.969 48.2396L134.086 55.2923L137.759 54.7105L137.894 55.5593L133.264 56.2926Z" fill="black"/>
<path d="M153.922 50.7212C153.922 51.5649 153.77 52.2941 153.465 52.9087C153.161 53.5233 152.743 53.9972 152.211 54.3306C151.68 54.6639 151.073 54.8306 150.391 54.8306C149.709 54.8306 149.102 54.6639 148.571 54.3306C148.04 53.9972 147.622 53.5233 147.317 52.9087C147.012 52.2941 146.86 51.5649 146.86 50.7212C146.86 49.8774 147.012 49.1483 147.317 48.5337C147.622 47.9191 148.04 47.4452 148.571 47.1118C149.102 46.7785 149.709 46.6118 150.391 46.6118C151.073 46.6118 151.68 46.7785 152.211 47.1118C152.743 47.4452 153.161 47.9191 153.465 48.5337C153.77 49.1483 153.922 49.8775 153.922 50.7212ZM152.985 50.7212C152.985 50.0285 152.869 49.4439 152.637 48.9673C152.408 48.4907 152.097 48.1301 151.704 47.8853C151.313 47.6405 150.875 47.5181 150.391 47.5181C149.907 47.5181 149.468 47.6405 149.075 47.8853C148.684 48.13 148.373 48.4907 148.141 48.9673C147.912 49.4438 147.797 50.0285 147.797 50.7212C147.797 51.4139 147.912 51.9985 148.141 52.4751C148.373 52.9517 148.684 53.3123 149.075 53.5571C149.468 53.8019 149.907 53.9243 150.391 53.9243C150.875 53.9243 151.313 53.8019 151.704 53.5571C152.097 53.3123 152.408 52.9517 152.637 52.4751C152.869 51.9985 152.985 51.4139 152.985 50.7212Z" fill="black"/>
<path d="M169.673 48.4356L168.421 56.3371L167.495 56.1905L164.172 49.3046L164.095 49.2924L163.112 55.4963L162.155 55.3447L163.407 47.4432L164.333 47.5899L167.669 54.4936L167.746 54.5059L168.731 48.2865L169.673 48.4356Z" fill="black"/>
<path d="M179.68 59.2214L177.332 58.4585L179.804 50.85L182.256 51.6467C182.994 51.8865 183.576 52.2441 184.002 52.7193C184.429 53.1921 184.69 53.7575 184.786 54.4156C184.882 55.0712 184.802 55.7928 184.546 56.5804C184.289 57.373 183.926 58.0094 183.458 58.4898C182.99 58.9677 182.437 59.2725 181.797 59.4042C181.158 59.5334 180.452 59.4725 179.68 59.2214ZM178.519 57.9405L179.886 58.3847C180.515 58.5892 181.076 58.6372 181.568 58.5289C182.061 58.4205 182.481 58.1752 182.83 57.7929C183.179 57.4106 183.454 56.9099 183.655 56.2907C183.854 55.6765 183.926 55.1151 183.869 54.6066C183.814 54.0956 183.625 53.6565 183.303 53.2891C182.983 52.9193 182.525 52.6379 181.931 52.4447L180.46 51.9667L178.519 57.9405Z" fill="black"/>
<path d="M198.743 63.0269C198.36 63.7787 197.894 64.3592 197.343 64.7685C196.793 65.1778 196.205 65.4103 195.58 65.4662C194.956 65.522 194.339 65.395 193.732 65.0853C193.124 64.7755 192.659 64.3515 192.337 63.8134C192.015 63.2752 191.857 62.6631 191.865 61.9772C191.872 61.2913 192.068 60.5724 192.451 59.8206C192.834 59.0688 193.301 58.4883 193.851 58.079C194.402 57.6698 194.989 57.4372 195.614 57.3814C196.238 57.3256 196.855 57.4525 197.463 57.7623C198.071 58.072 198.536 58.496 198.858 59.0342C199.18 59.5724 199.337 60.1844 199.329 60.8704C199.322 61.5563 199.127 62.2751 198.743 63.0269ZM197.908 62.6013C198.223 61.9841 198.385 61.4106 198.395 60.8807C198.407 60.3521 198.293 59.8894 198.054 59.4928C197.817 59.0973 197.483 58.7897 197.051 58.5698C196.62 58.3499 196.173 58.2597 195.712 58.2993C195.252 58.3401 194.811 58.5202 194.389 58.8396C193.968 59.1601 193.601 59.629 193.286 60.2462C192.972 60.8634 192.808 61.4364 192.796 61.965C192.786 62.4949 192.9 62.9575 193.137 63.353C193.376 63.7496 193.711 64.0579 194.143 64.2778C194.575 64.4977 195.02 64.5872 195.479 64.5465C195.941 64.5069 196.382 64.3268 196.802 64.0062C197.225 63.6868 197.594 63.2185 197.908 62.6013Z" fill="black"/>
<path d="M213.815 68.1408L209.112 74.6129L208.354 74.0618L208.519 66.4178L208.456 66.3719L204.764 71.4536L203.98 70.8841L208.682 64.412L209.441 64.963L209.279 72.6289L209.342 72.6748L213.044 67.5805L213.815 68.1408Z" fill="black"/>
</svg>
