<svg width="23" height="19" viewBox="0 0 23 19" fill="none" xmlns="http://www.w3.org/2000/svg">
<path opacity="0.8" d="M5.472 18.144C4.416 18.144 3.552 17.928 2.88 17.496C2.208 17.064 1.656 16.512 1.224 15.84C0.744 15.024 0.408 14.184 0.216 13.32C0.072 12.408 0 11.664 0 11.088C0 8.736 0.6 6.6 1.8 4.68C3 2.76 4.872 1.2 7.416 0L8.064 1.296C6.576 1.92 5.28 2.904 4.176 4.248C3.12 5.592 2.592 6.96 2.592 8.352C2.592 8.928 2.664 9.432 2.808 9.864C3.576 9.24 4.464 8.928 5.472 8.928C6.72 8.928 7.8 9.336 8.712 10.152C9.624 10.968 10.08 12.096 10.08 13.536C10.08 14.88 9.624 15.984 8.712 16.848C7.8 17.712 6.72 18.144 5.472 18.144ZM17.712 18.144C16.656 18.144 15.792 17.928 15.12 17.496C14.448 17.064 13.896 16.512 13.464 15.84C12.984 15.024 12.648 14.184 12.456 13.32C12.312 12.408 12.24 11.664 12.24 11.088C12.24 8.736 12.84 6.6 14.04 4.68C15.24 2.76 17.112 1.2 19.656 0L20.304 1.296C18.816 1.92 17.52 2.904 16.416 4.248C15.36 5.592 14.832 6.96 14.832 8.352C14.832 8.928 14.904 9.432 15.048 9.864C15.816 9.24 16.704 8.928 17.712 8.928C18.96 8.928 20.04 9.336 20.952 10.152C21.864 10.968 22.32 12.096 22.32 13.536C22.32 14.88 21.864 15.984 20.952 16.848C20.04 17.712 18.96 18.144 17.712 18.144Z" fill="#0A090C"/>
</svg>
