<svg width="490" height="886" viewBox="0 0 490 886" fill="none" xmlns="http://www.w3.org/2000/svg">
<path d="M160.805 570.009C137.588 548.847 128.616 523.125 128.794 493.069C129.13 436.208 129.518 379.333 128.526 322.488C128.228 305.362 129.444 293.215 149.474 296.053C153.701 290.714 151.788 285.484 151.792 280.61C151.868 195.948 151.795 111.286 151.855 26.6235C151.87 4.74524 171.936 -6.62994 191.029 4.07619C199.501 8.82685 197.449 17.0343 197.463 24.2426C197.62 102.586 197.542 180.931 197.588 259.275C197.604 286.134 198.708 286.756 224.799 284.425C257.912 281.467 291.3 280.602 322.662 267.157C333.128 262.67 337.744 267.641 337.944 278.341C338.037 283.376 337.96 288.414 337.96 294.868C354.593 295.816 356.49 307.261 356.399 321.244C356.045 375.577 356.859 429.923 356.058 484.247C355.376 530.514 339.5 568.237 294.522 587.078C281.288 592.622 267.196 594.778 253.144 596.361C243.749 597.419 238.547 601.132 237.599 611.229C236.245 625.651 232.761 639.988 232.64 654.383C232.089 719.755 232.399 785.135 232.399 854.394C261.596 779.651 289.446 708.357 317.298 637.063C319.817 630.616 322.298 624.152 324.898 617.738C336.414 589.332 336.41 589.816 366.663 590.967C376.248 591.332 381.442 595.006 384.776 603.616C418.168 689.871 451.771 776.041 484.898 862.403C487.56 869.344 496.299 879.716 482.091 884.033C468.316 888.22 464.019 879.194 462.18 866.637C457.603 835.391 450.35 804.833 439.035 775.261C434.37 763.071 428.165 757.025 414.653 757.443C388.176 758.261 361.642 758.019 335.156 757.299C322.296 756.949 314.96 761.333 310.264 774.242C298.646 806.179 285.227 837.424 273.404 869.288C268.957 881.272 261.854 885.329 249.773 885.619C193.218 886.975 193.233 887.229 162.102 840.607C118.599 775.456 75.1073 710.296 31.5039 645.214C28.8593 641.267 27.4153 636.018 20.959 633.793C20.6406 637.127 20.0601 640.024 20.1332 642.904C22.053 718.566 14.7581 794.503 26.4382 869.866C28.1974 881.217 22.4949 884.632 12.8825 884.752C3.66446 884.866 -1.3384 880.741 0.311799 870.865C14.577 785.495 4.30745 699.411 7.48472 613.721C8.29046 591.991 20.3757 583.591 40.0412 591.496C46.9122 594.258 50.088 600.511 53.8934 606.203C103.694 680.694 153.47 755.2 203.304 829.667C207.025 835.227 211.135 840.513 214.864 845.649C219.02 844.063 218.581 841.187 218.539 838.863C217.255 766.917 222.076 694.878 215.052 623.005C213.305 605.125 210.747 589.781 189.116 586.308C178.91 584.67 170.111 577.595 160.805 570.009ZM302.411 546.811C307.856 533.695 308.266 519.851 308.25 505.892C308.187 450.327 308.447 394.761 308.079 339.198C307.989 325.561 311.668 311.822 307.795 297.424C263.395 297.424 219.355 297.424 175.009 297.424C175.009 371.395 174.688 443.904 175.144 516.409C175.371 552.669 190.454 573.277 220.476 581.3C255.675 590.708 283.004 579.938 302.411 546.811ZM352.175 666.882C343.553 691.934 330.724 715.545 324.362 743.183C359.113 743.183 390.682 743.183 425.844 743.183C408.785 699.01 392.721 657.416 375.502 612.828C364.507 631.238 359.474 647.987 352.175 666.882Z" fill="#F0F0F0"/>
</svg>
